<?xml version="1.0" encoding="UTF-8"?>
<svg version="1.1" xmlns="http://www.w3.org/2000/svg" width="1080" height="1080">
<path d="M0 0 C3.10398978 -0.08710289 6.20766548 -0.14042309 9.3125 -0.1875 C10.19357422 -0.21263672 11.07464844 -0.23777344 11.98242188 -0.26367188 C12.82998047 -0.27333984 13.67753906 -0.28300781 14.55078125 -0.29296875 C15.33106689 -0.3086792 16.11135254 -0.32438965 16.9152832 -0.34057617 C19.59227064 0.09675811 20.32132797 0.90094561 22 3 C22.36914349 4.94649792 22.36914349 4.94649792 22.36076355 7.19511414 C22.36694954 8.47604446 22.36694954 8.47604446 22.3732605 9.78285217 C22.36247467 10.71649094 22.35168884 11.6501297 22.34057617 12.61206055 C22.34101425 13.59760925 22.34145233 14.58315796 22.34190369 15.59857178 C22.33981093 18.86148782 22.31645653 22.12389229 22.29296875 25.38671875 C22.28737454 27.64687316 22.28310362 29.90703121 22.28010559 32.16719055 C22.2686431 38.12014789 22.23916366 44.07288615 22.20599365 50.02575684 C22.17532312 56.09852128 22.1616067 62.17132108 22.14648438 68.24414062 C22.11429545 80.16285675 22.06308201 92.08141017 22 104 C23.32 104 24.64 104 26 104 C26.33 103.01 26.66 102.02 27 101 C29.90625 99.6484375 29.90625 99.6484375 33.5 98.375 C37.54260343 97.19881204 37.54260343 97.19881204 41 95 C42.66617115 94.95936168 44.33388095 94.957279 46 95 C46 94.34 46 93.68 46 93 C47.7015625 92.7834375 47.7015625 92.7834375 49.4375 92.5625 C52.80777201 92.38828522 52.80777201 92.38828522 54 91 C56.1560354 90.71404162 58.31270393 90.55247515 60.48046875 90.37890625 C63.08869829 90.07140183 63.08869829 90.07140183 65.78295898 88.99072266 C69.05246808 87.98384189 71.58585866 87.7556312 74.9921875 87.76953125 C76.66861328 87.77243164 76.66861328 87.77243164 78.37890625 87.77539062 C79.53261719 87.78763672 80.68632813 87.79988281 81.875 87.8125 C83.02097656 87.81314453 84.16695312 87.81378906 85.34765625 87.81445312 C91.32067482 87.8453836 97.0948203 88.09318494 103 89 C103 89.66 103 90.32 103 91 C108.61 91 114.22 91 120 91 C120 91.66 120 92.32 120 93 C120.85464844 92.98839844 121.70929688 92.97679687 122.58984375 92.96484375 C124.24693359 92.95130859 124.24693359 92.95130859 125.9375 92.9375 C127.03964844 92.92589844 128.14179687 92.91429687 129.27734375 92.90234375 C132 93 132 93 133 94 C134.155 94.165 135.31 94.33 136.5 94.5 C140 95 140 95 141 96 C142.03125 96.12375 143.0625 96.2475 144.125 96.375 C148.18479632 97.02980586 151.25806441 98.32949304 155 100 C157.31913662 100.74430216 159.64456777 101.37508941 162 102 C162 102.66 162 103.32 162 104 C162.721875 103.95875 163.44375 103.9175 164.1875 103.875 C167.20729369 104.00921305 169.26935729 104.75170619 172 106 C172 106.66 172 107.32 172 108 C173.65 108 175.3 108 177 108 C177 108.66 177 109.32 177 110 C177.66 110.0825 178.32 110.165 179 110.25 C182.99039163 111.24759791 186.38549643 113.07166683 190 115 C190 115.66 190 116.32 190 117 C191.32 117 192.64 117 194 117 C194 117.66 194 118.32 194 119 C194.66 119 195.32 119 196 119 C196 119.66 196 120.32 196 121 C197.65 121 199.3 121 201 121 C201 121.66 201 122.32 201 123 C201.61875 123.144375 202.2375 123.28875 202.875 123.4375 C205 124 205 124 207 125 C207 125.66 207 126.32 207 127 C207.8353125 127.4021875 207.8353125 127.4021875 208.6875 127.8125 C211.21225334 129.10899496 213.63714484 130.42476323 216 132 C216 132.66 216 133.32 216 134 C216.66 134 217.32 134 218 134 C218 134.66 218 135.32 218 136 C218.66 136 219.32 136 220 136 C220 136.66 220 137.32 220 138 C220.66 138.185625 221.32 138.37125 222 138.5625 C229.23095658 142.02733336 234.77616481 148.27694054 239 155 C239.33 155.99 239.66 156.98 240 158 C240.66 158 241.32 158 242 158 C242 158.66 242 159.32 242 160 C242.66 160 243.32 160 244 160 C244 160.66 244 161.32 244 162 C244.66 162 245.32 162 246 162 C246 163.32 246 164.64 246 166 C246.66 166 247.32 166 248 166 C248 166.66 248 167.32 248 168 C248.66 168 249.32 168 250 168 C250 168.99 250 169.98 250 171 C250.66 171 251.32 171 252 171 C252.33 172.32 252.66 173.64 253 175 C253.66 175 254.32 175 255 175 C259 181.5 259 181.5 259 186 C259.66 186 260.32 186 261 186 C261 187.32 261 188.64 261 190 C261.66 190 262.32 190 263 190 C263 191.32 263 192.64 263 194 C263.66 194 264.32 194 265 194 C270.74031891 204.37357631 270.74031891 204.37357631 270 210 C270.66 210 271.32 210 272 210 C272 211.98 272 213.96 272 216 C272.66 216 273.32 216 274 216 C275.7479503 221.24385089 276.19392201 225.47322267 276 231 C276.66 231 277.32 231 278 231 C280.15293911 237.87857275 281.39566841 244.36354771 281.7890625 251.56640625 C281.8501126 254.00714692 281.8501126 254.00714692 283 256 C283.09543509 257.65935731 283.12795141 259.32252033 283.12939453 260.98461914 C283.13254669 262.02231949 283.13569885 263.06001984 283.13894653 264.12916565 C283.13591019 265.815131 283.13591019 265.815131 283.1328125 267.53515625 C283.13424759 269.2586454 283.13424759 269.2586454 283.13571167 271.01695251 C283.13639305 273.44888361 283.13454167 275.88081652 283.13037109 278.31274414 C283.12501743 282.05033419 283.13032004 285.78780432 283.13671875 289.52539062 C283.13605806 291.88281277 283.13477708 294.24023483 283.1328125 296.59765625 C283.13483673 297.72365738 283.13686096 298.84965851 283.13894653 300.00978088 C283.13579437 301.04432907 283.13264221 302.07887726 283.12939453 303.14477539 C283.12820114 304.51805748 283.12820114 304.51805748 283.12698364 305.91908264 C283 308 283 308 282 309 C281.83901629 310.475684 281.72205621 311.95623732 281.625 313.4375 C280.98691156 320.42656245 278.90119316 326.73638431 276.375 333.25 C275.16168281 336.55904688 274.43546857 339.51625144 274 343 C273.34 343 272.68 343 272 343 C272.061875 344.07314453 272.061875 344.07314453 272.125 345.16796875 C271.98639687 348.30819586 271.22896491 350.43211348 270 353.3125 C269.62875 354.19550781 269.2575 355.07851563 268.875 355.98828125 C268.58625 356.65214844 268.2975 357.31601562 268 358 C267.34 358 266.68 358 266 358 C265.67 359.65 265.34 361.3 265 363 C264.34 363 263.68 363 263 363 C263 364.32 263 365.64 263 367 C262.34 367 261.68 367 261 367 C261 368.32 261 369.64 261 371 C260.34 371 259.68 371 259 371 C259 372.32 259 373.64 259 375 C258.34 375 257.68 375 257 375 C257 375.99 257 376.98 257 378 C256.34 378 255.68 378 255 378 C254.896875 378.598125 254.79375 379.19625 254.6875 379.8125 C253.88730103 382.35858765 252.86718082 383.13281918 251 385 C249.95377125 386.97620986 248.94560065 388.9737129 248 391 C247.34 391 246.68 391 246 391 C245.34 392.98 244.68 394.96 244 397 C243.34 397 242.68 397 242 397 C242 397.66 242 398.32 242 399 C241.34 399 240.68 399 240 399 C239.731875 399.639375 239.46375 400.27875 239.1875 400.9375 C238 403 238 403 235 404 C233.77479736 407.00847418 233.77479736 407.00847418 233 410 C232.34 410 231.68 410 231 410 C231 410.66 231 411.32 231 412 C230.34 412 229.68 412 229 412 C229 412.66 229 413.32 229 414 C228.34 414 227.68 414 227 414 C226.731875 414.639375 226.46375 415.27875 226.1875 415.9375 C225 418 225 418 222 419 C222 419.66 222 420.32 222 421 C221.34 421 220.68 421 220 421 C220 421.66 220 422.32 220 423 C214.58823529 427 214.58823529 427 212 427 C211.67 427.99 211.34 428.98 211 430 C210.34 430 209.68 430 209 430 C209 430.66 209 431.32 209 432 C208.34 432 207.68 432 207 432 C207 432.66 207 433.32 207 434 C204 436 204 436 201 436 C201 436.66 201 437.32 201 438 C200.34 438 199.68 438 199 438 C199 438.66 199 439.32 199 440 C194.61538462 443 194.61538462 443 192 443 C192 443.66 192 444.32 192 445 C185.5 449 185.5 449 181 449 C181 449.66 181 450.32 181 451 C177.34505219 453.02203386 173.67667398 455.01775279 170 457 C169.0821875 457.49886719 168.164375 457.99773437 167.21875 458.51171875 C166.3628125 458.96160156 165.506875 459.41148437 164.625 459.875 C163.85414063 460.28492188 163.08328125 460.69484375 162.2890625 461.1171875 C159.71250169 462.11087819 157.73820527 462.16448583 155 462 C155 462.66 155 463.32 155 464 C151.17010894 465.80230168 148.21878192 466.19622241 144 466 C144 466.66 144 467.32 144 468 C138.90934177 470.05412525 134.48270676 471.32864815 129 472 C128.67 472.33 128.34 472.66 128 473 C121.63864477 473.89540996 115.41250113 474.14775833 108.99609375 474.1328125 C108.07337173 474.13376923 107.15064972 474.13472595 106.19996643 474.13571167 C104.26294893 474.13638771 102.32592908 474.13457391 100.38891602 474.13037109 C97.44216785 474.12500849 94.49557166 474.13033892 91.54882812 474.13671875 C89.65624967 474.13605799 87.7636713 474.13477686 85.87109375 474.1328125 C85.00004501 474.13483673 84.12899628 474.13686096 83.23155212 474.13894653 C76.13711886 474.11204356 69.34169189 473.89183902 62.75 471 C59.84327074 469.74103446 57.09716774 468.68194519 54 468 C54 467.34 54 466.68 54 466 C52.68 466 51.36 466 50 466 C50 465.34 50 464.68 50 464 C49.2575 463.855625 48.515 463.71125 47.75 463.5625 C45.47972261 463.09812508 43.24240521 462.58136431 41 462 C41 461.34 41 460.68 41 460 C39.68 460 38.36 460 37 460 C37 459.34 37 458.68 37 458 C35.68 458 34.36 458 33 458 C33 457.34 33 456.68 33 456 C31.35 455.67 29.7 455.34 28 455 C28 454.34 28 453.68 28 453 C26.68 453 25.36 453 24 453 C24 452.34 24 451.68 24 451 C23.34 451 22.68 451 22 451 C22 450.34 22 449.68 22 449 C20.68 449 19.36 449 18 449 C18 448.34 18 447.68 18 447 C17.01 447 16.02 447 15 447 C15 446.34 15 445.68 15 445 C13.68 445 12.36 445 11 445 C11 444.34 11 443.68 11 443 C8.66785852 441.79371992 6.50357861 440.8345262 4 440 C4 439.34 4 438.68 4 438 C2.68 438 1.36 438 0 438 C0 437.34 0 436.68 0 436 C-1.32 436 -2.64 436 -4 436 C-4 435.34 -4 434.68 -4 434 C-4.598125 433.855625 -5.19625 433.71125 -5.8125 433.5625 C-7.56150404 433.1127561 -9.28677023 432.57107659 -11 432 C-11 431.34 -11 430.68 -11 430 C-11.721875 429.87625 -12.44375 429.7525 -13.1875 429.625 C-15.95721894 429.0095069 -18.3970354 428.11555626 -21 427 C-21 426.34 -21 425.68 -21 425 C-22.65 425 -24.3 425 -26 425 C-26 424.34 -26 423.68 -26 423 C-27.7015625 423.0309375 -27.7015625 423.0309375 -29.4375 423.0625 C-33 423 -33 423 -34 422 C-35.32781878 421.79395915 -36.66295895 421.6337041 -38 421.5 C-41.88888889 421.11111111 -41.88888889 421.11111111 -43 420 C-44.91458282 419.90028214 -46.83282317 419.86919411 -48.75 419.8671875 C-50.49796875 419.86525391 -50.49796875 419.86525391 -52.28125 419.86328125 C-53.5084375 419.86714844 -54.735625 419.87101562 -56 419.875 C-57.2271875 419.87113281 -58.454375 419.86726563 -59.71875 419.86328125 C-60.8840625 419.86457031 -62.049375 419.86585938 -63.25 419.8671875 C-64.32765625 419.86831543 -65.4053125 419.86944336 -66.515625 419.87060547 C-68.94219997 419.71907629 -68.94219997 419.71907629 -70 421 C-71.99958364 421.04080783 -74.00045254 421.04254356 -76 421 C-76 421.66 -76 422.32 -76 423 C-78.90600261 424.25664978 -80.79604584 425 -84 425 C-84 425.66 -84 426.32 -84 427 C-84.99 427 -85.98 427 -87 427 C-87.28875 427.598125 -87.5775 428.19625 -87.875 428.8125 C-89 431 -89 431 -91 434 C-91.66 434 -92.32 434 -93 434 C-93 434.66 -93 435.32 -93 436 C-93.66 436 -94.32 436 -95 436 C-95 436.66 -95 437.32 -95 438 C-95.66 438 -96.32 438 -97 438 C-97 438.66 -97 439.32 -97 440 C-97.66 440 -98.32 440 -99 440 C-99.33 441.65 -99.66 443.3 -100 445 C-100.66 445 -101.32 445 -102 445 C-102.66 446.98 -103.32 448.96 -104 451 C-104.66 451 -105.32 451 -106 451 C-106 452.32 -106 453.64 -106 455 C-106.66 455 -107.32 455 -108 455 C-107.938125 455.825 -107.87625 456.65 -107.8125 457.5 C-108.08414817 462.57076592 -109.35072102 467.35072102 -113 471 C-115.95852109 471.44360072 -118.94948451 471.32412652 -121.9375 471.3125 C-122.76185547 471.32861328 -123.58621094 471.34472656 -124.43554688 471.36132812 C-125.22896484 471.36197266 -126.02238281 471.36261719 -126.83984375 471.36328125 C-127.56550537 471.36626221 -128.29116699 471.36924316 -129.03881836 471.37231445 C-131.66469244 470.87381352 -132.39275921 470.13306885 -134 468 C-134.37604749 465.26530969 -134.37604749 465.26530969 -134.37752342 461.8775692 C-134.38534666 460.58828998 -134.39316991 459.29901076 -134.40123022 457.97066247 C-134.39474334 456.5314963 -134.38797335 455.09233138 -134.38095093 453.65316772 C-134.38440541 452.13081324 -134.38916856 450.60846125 -134.39513266 449.08611453 C-134.40770205 444.8916182 -134.40144535 440.6973256 -134.39217401 436.50282836 C-134.3854077 431.98322501 -134.39585293 427.46365758 -134.40411377 422.94406128 C-134.41748117 414.08406649 -134.41455945 405.22414779 -134.40587585 396.36414997 C-134.39910895 389.1622511 -134.39817828 381.96037358 -134.4014473 374.75847244 C-134.40213684 373.22265442 -134.40213684 373.22265442 -134.40284032 371.65580977 C-134.40379948 369.57593594 -134.40477212 367.49606213 -134.4057581 365.41618831 C-134.41432146 345.89284018 -134.40446438 326.36953424 -134.388357 306.84619303 C-134.37496499 290.09584579 -134.37727087 273.34556095 -134.39111328 256.59521484 C-134.40717313 237.15245906 -134.41348472 217.70974035 -134.40427649 198.26697886 C-134.40332084 196.1927933 -134.40237772 194.11860773 -134.4014473 192.04442215 C-134.40098447 191.02385272 -134.40052164 190.0032833 -134.40004479 188.95178752 C-134.39745522 181.76197136 -134.40182545 174.57217871 -134.40888596 167.38236618 C-134.41730617 158.61493088 -134.41501032 149.84757614 -134.39904372 141.08015005 C-134.3911662 136.60718059 -134.38806041 132.13434538 -134.39799118 127.66137695 C-134.40695006 123.56409551 -134.40198557 119.46707235 -134.38605852 115.36981423 C-134.38271562 113.88994458 -134.38439375 112.41005298 -134.39168589 110.93019752 C-134.4362313 101.13652027 -133.44251628 93.69888715 -129 85 C-128.34 85 -127.68 85 -127 85 C-127 84.01 -127 83.02 -127 82 C-126.34 82 -125.68 82 -125 82 C-125 81.34 -125 80.68 -125 80 C-124.34 80 -123.68 80 -123 80 C-123 79.34 -123 78.68 -123 78 C-122.34 78 -121.68 78 -121 78 C-120.77054687 77.24332031 -120.54109375 76.48664063 -120.3046875 75.70703125 C-118.72012006 72.41929103 -117.26152964 71.48844506 -114.125 69.6875 C-113.26132812 69.17574219 -112.39765625 68.66398437 -111.5078125 68.13671875 C-109 67 -109 67 -105 67 C-105 66.34 -105 65.68 -105 65 C-103.02 65 -101.04 65 -99 65 C-99 64.34 -99 63.68 -99 63 C-97.01432292 62.8046875 -95.02864583 62.609375 -93.04296875 62.4140625 C-90.70011858 62.07334609 -90.70011858 62.07334609 -88 60 C-81.85500654 58.24592537 -75.50508519 57.68267766 -69.15234375 57.24609375 C-67.02113227 57.22853362 -67.02113227 57.22853362 -66 56 C-63.46950598 55.92686433 -60.96695163 55.90752473 -58.4375 55.9375 C-57.72658203 55.94201172 -57.01566406 55.94652344 -56.28320312 55.95117188 C-54.52209987 55.96299136 -52.76103964 55.98092737 -51 56 C-51 55.34 -51 54.68 -51 54 C-49.82630859 53.90912109 -49.82630859 53.90912109 -48.62890625 53.81640625 C-47.61699219 53.73261719 -46.60507812 53.64882813 -45.5625 53.5625 C-44.55316406 53.48128906 -43.54382813 53.40007812 -42.50390625 53.31640625 C-40.06359221 53.26788532 -40.06359221 53.26788532 -39 52 C-36.66702567 51.95907063 -34.33294775 51.95758277 -32 52 C-32 51.34 -32 50.68 -32 50 C-31.278125 49.731875 -30.55625 49.46375 -29.8125 49.1875 C-26.95860702 48.06767588 -26.95860702 48.06767588 -24.375 46.375 C-22 45 -22 45 -19 45 C-19 44.34 -19 43.68 -19 43 C-18.34 43 -17.68 43 -17 43 C-17 42.34 -17 41.68 -17 41 C-16.34 41 -15.68 41 -15 41 C-15 40.34 -15 39.68 -15 39 C-14.34 39 -13.68 39 -13 39 C-13 38.34 -13 37.68 -13 37 C-12.34 37 -11.68 37 -11 37 C-10.690625 36.21625 -10.38125 35.4325 -10.0625 34.625 C-9 32 -9 32 -8 30 C-7.34 30 -6.68 30 -6 30 C-6 28.68 -6 27.36 -6 26 C-5.34 26 -4.68 26 -4 26 C-4 23.36 -4 20.72 -4 18 C-3.34 18 -2.68 18 -2 18 C-2 12.72 -2 7.44 -2 2 C-1.34 2 -0.68 2 0 2 C0 1.34 0 0.68 0 0 Z M32 125 C19.66145036 140.58942499 21.70479718 165.05906325 21.74121094 183.70825195 C21.73849579 186.06039538 21.73493194 188.41253796 21.73059082 190.76467896 C21.72153336 197.1046613 21.72498173 203.44457801 21.73134899 209.7845614 C21.73591921 215.75591096 21.73241979 221.72725471 21.7294946 227.69860413 C21.72381398 240.22914082 21.73031642 252.75964807 21.74109533 265.29017993 C21.75005593 276.04039174 21.74845385 286.79056042 21.73925781 297.54077148 C21.72856163 310.05038273 21.72433467 322.55996841 21.73048234 335.06958359 C21.73360292 341.68307576 21.73400823 348.29653819 21.72740936 354.91002846 C21.72164945 361.1145246 21.72560782 367.3189388 21.73719788 373.52342606 C21.73985025 375.8039467 21.7390696 378.0844742 21.73467255 380.36499214 C21.72923929 383.46793512 21.73602378 386.57061234 21.74603271 389.67353821 C21.74157127 390.58382241 21.73710983 391.49410661 21.73251319 392.43197519 C21.73772868 393.26061269 21.74294418 394.0892502 21.74831772 394.94299793 C21.74864242 395.65921088 21.74896713 396.37542383 21.74930167 397.1133402 C21.90319996 399.33175685 21.90319996 399.33175685 24 402 C24.66 402 25.32 402 26 402 C26 402.66 26 403.32 26 404 C26.66 404 27.32 404 28 404 C28 404.66 28 405.32 28 406 C28.66 406 29.32 406 30 406 C30 406.66 30 407.32 30 408 C30.66 408 31.32 408 32 408 C32 408.66 32 409.32 32 410 C32.66 410 33.32 410 34 410 C34.495 411.485 34.495 411.485 35 413 C35.66 413 36.32 413 37 413 C37 413.66 37 414.32 37 415 C37.66 415 38.32 415 39 415 C39 415.66 39 416.32 39 417 C39.66 417 40.32 417 41 417 C41 417.66 41 418.32 41 419 C41.66 419 42.32 419 43 419 C43 419.66 43 420.32 43 421 C44.98 421.66 46.96 422.32 49 423 C49 423.66 49 424.32 49 425 C50.20747941 426.70790088 50.20747941 426.70790088 52 428 C53.32 428 54.64 428 56 428 C56 428.66 56 429.32 56 430 C58.95377498 432.36980013 58.95377498 432.36980013 63 432 C63 432.66 63 433.32 63 434 C63.61746094 434.18175781 64.23492188 434.36351562 64.87109375 434.55078125 C81.48051948 439.48051948 81.48051948 439.48051948 83 441 C87.00467165 441.26761793 91.01327617 441.27140414 95.02612305 441.29516602 C97.03001954 441.31222352 99.03363007 441.35608764 101.03710938 441.40039062 C108.44964948 441.44898519 113.77077625 441.10263944 120 437 C127 433.5 127 433.5 134 430 C134 429.34 134 428.68 134 428 C134.66 428 135.32 428 136 428 C136.66 426.88625 137.32 425.7725 138 424.625 C138.37125 423.99851562 138.7425 423.37203125 139.125 422.7265625 C140.15068348 421.02527333 140.15068348 421.02527333 140 419 C140.99 419 141.98 419 143 419 C143 417.68 143 416.36 143 415 C143.66 415 144.32 415 145 415 C146.49821059 411.62902617 147 409.79557881 147 406 C147.66 406 148.32 406 149 406 C150.50735108 401.2769666 151.33717823 396.85917241 151.75390625 391.91796875 C152 390 152 390 153 388 C154.74130343 371.7263371 154.25941141 355.19456631 153.5625 338.875 C153.52334473 337.93253418 153.48418945 336.99006836 153.44384766 336.01904297 C153.40179199 335.14393066 153.35973633 334.26881836 153.31640625 333.3671875 C153.27974854 332.59487793 153.24309082 331.82256836 153.20532227 331.02685547 C153.05425297 328.79775145 153.05425297 328.79775145 152 326 C151.69301138 322.61459776 151.49095405 319.22864938 151.28125 315.8359375 C151.31259668 313.10130637 151.31259668 313.10130637 150 312 C149.67553663 308.89957227 149.48665559 305.7979275 149.28125 302.6875 C149.29392201 300.08403248 149.29392201 300.08403248 148 299 C147.67762788 296.42102306 147.48732696 293.84068179 147.28125 291.25 C147.23799335 289.03334648 147.23799335 289.03334648 146 288 C145.76712992 286.31816052 145.58735834 284.6287584 145.4375 282.9375 C145.35371094 282.01839844 145.26992188 281.09929687 145.18359375 280.15234375 C145.12300781 279.44207031 145.06242187 278.73179687 145 278 C144.34 278 143.68 278 143 278 C143 275.03 143 272.06 143 269 C142.34 269 141.68 269 141 269 C140.9175 267.845 140.835 266.69 140.75 265.5 C139.69038279 255.82523414 136.70053291 246.32471004 134 237 C133.34 237 132.68 237 132 237 C132 234.69 132 232.38 132 230 C131.34 230 130.68 230 130 230 C130 228.02 130 226.04 130 224 C129.34 224 128.68 224 128 224 C127.72414063 222.99839844 127.44828125 221.99679687 127.1640625 220.96484375 C126.06086161 217.10364063 124.74171447 213.33894787 123.375 209.5625 C122.92898438 208.32628906 122.48296875 207.09007812 122.0234375 205.81640625 C121.51683594 204.42228516 121.51683594 204.42228516 121 203 C120.34 203 119.68 203 119 203 C119 201.35 119 199.7 119 198 C118.34 198 117.68 198 117 198 C117 196.68 117 195.36 117 194 C116.34 194 115.68 194 115 194 C114.01 191.03 113.02 188.06 112 185 C111.34 185 110.68 185 110 185 C110 183.68 110 182.36 110 181 C109.34 181 108.68 181 108 181 C108 180.01 108 179.02 108 178 C107.34 178 106.68 178 106 178 C105.33333333 175.33333333 104.66666667 172.66666667 104 170 C103.34 170 102.68 170 102 170 C102 169.34 102 168.68 102 168 C101.34 168 100.68 168 100 168 C99.505 166.02 99.505 166.02 99 164 C98.34 164 97.68 164 97 164 C97 163.01 97 162.02 97 161 C96.34 161 95.68 161 95 161 C95 159.68 95 158.36 95 157 C94.34 157 93.68 157 93 157 C93 156.34 93 155.68 93 155 C92.34 155 91.68 155 91 155 C90.84337891 154.12601563 90.84337891 154.12601563 90.68359375 153.234375 C89.89706383 150.66354577 88.82434109 149.2659942 87.0625 147.25 C86.53785156 146.63640625 86.01320313 146.0228125 85.47265625 145.390625 C84.09522384 143.77114437 84.09522384 143.77114437 82 144 C82 143.34 82 142.68 82 142 C81.34 142 80.68 142 80 142 C80 141.34 80 140.68 80 140 C79.34 140 78.68 140 78 140 C78 139.34 78 138.68 78 138 C77.34 138 76.68 138 76 138 C76 137.34 76 136.68 76 136 C75.34 136 74.68 136 74 136 C74 135.34 74 134.68 74 134 C70.67296922 130.08584614 67.97360357 128.27231719 63 127 C63 126.34 63 125.68 63 125 C62.28972656 124.79503906 61.57945312 124.59007812 60.84765625 124.37890625 C59.92855469 124.10949219 59.00945312 123.84007812 58.0625 123.5625 C57.14597656 123.29566406 56.22945312 123.02882813 55.28515625 122.75390625 C53 122 53 122 52 121 C44.78553921 120.29586863 37.81253686 120.19833911 32 125 Z " fill="#010101" transform="translate(472,241)"/>
<path d="M0 0 C2.31 0 4.62 0 7 0 C7.66 1.32 8.32 2.64 9 4 C9.66 4 10.32 4 11 4 C11 4.66 11 5.32 11 6 C11.66 6 12.32 6 13 6 C13 6.66 13 7.32 13 8 C13.8971875 8.1546875 13.8971875 8.1546875 14.8125 8.3125 C17.32225354 9.10127968 18.17017086 10.17017086 20 12 C22.10332891 12.71447643 22.10332891 12.71447643 24 13 C24 13.66 24 14.32 24 15 C25.32 15 26.64 15 28 15 C28 15.66 28 16.32 28 17 C29.32 17 30.64 17 32 17 C32 17.66 32 18.32 32 19 C32.66 18.938125 33.32 18.87625 34 18.8125 C37.24574146 19.01535884 39.81769903 19.94203765 42.82421875 21.13671875 C48.85303198 23.52876134 54.56922344 25.19615293 61 26 C61.33 26.33 61.66 26.66 62 27 C63.80811184 27.20896317 65.62216032 27.36780361 67.4375 27.5 C72.78015267 27.89007634 72.78015267 27.89007634 75 29 C77.85207778 29.31255647 80.70496854 29.51037482 83.56640625 29.71875 C86 30 86 30 87 31 C89.50416935 31.21063107 91.99140081 31.37572077 94.5 31.5 C101.86486486 31.86486486 101.86486486 31.86486486 103 33 C104.39403756 33.10933628 105.79063776 33.18619553 107.1875 33.25 C114.20087848 33.85056507 120.49615232 36.46031308 127 39 C127 39.66 127 40.32 127 41 C128.65 41 130.3 41 132 41 C132 41.66 132 42.32 132 43 C133.32 43 134.64 43 136 43 C136 43.66 136 44.32 136 45 C136.66 45 137.32 45 138 45 C138 45.66 138 46.32 138 47 C138.66 47 139.32 47 140 47 C140 47.66 140 48.32 140 49 C140.639375 49.268125 141.27875 49.53625 141.9375 49.8125 C144 51 144 51 145 54 C145.66 54 146.32 54 147 54 C147 54.66 147 55.32 147 56 C147.66 56 148.32 56 149 56 C149 57.32 149 58.64 149 60 C149.66 60 150.32 60 151 60 C151 61.65 151 63.3 151 65 C151.66 65 152.32 65 153 65 C153.309375 66.093125 153.61875 67.18625 153.9375 68.3125 C154.58337897 70.55407994 155.2623117 72.7869351 156 75 C156.09179552 76.4089832 156.12908295 77.82190312 156.13142776 79.23387146 C156.13526891 80.10187661 156.13911005 80.96988176 156.1430676 81.8641901 C156.14220112 82.8183604 156.14133463 83.77253069 156.14044189 84.75561523 C156.14341302 85.7687828 156.14638414 86.78195036 156.1494453 87.82581997 C156.15814962 91.23675282 156.15964199 94.64765065 156.16113281 98.05859375 C156.16575965 100.49748815 156.17078413 102.93638183 156.17617798 105.37527466 C156.18931436 112.01145178 156.19578547 118.64761514 156.20018864 125.28380203 C156.20295038 129.42552061 156.20718753 133.56723686 156.21169281 137.70895386 C156.2238838 149.17147169 156.23418447 160.63398766 156.2375679 172.09651184 C156.23789725 173.19692315 156.23789725 173.19692315 156.23823325 174.319565 C156.23845153 175.05494142 156.23866981 175.79031784 156.2388947 176.5479784 C156.23933817 178.0381705 156.23978473 179.52836259 156.24023438 181.01855469 C156.24056652 182.12733823 156.24056652 182.12733823 156.24090537 183.25852144 C156.24485632 195.24527211 156.26232012 207.23196211 156.2855939 219.21868932 C156.30928427 231.51898619 156.32176864 243.81925258 156.32293582 256.11957264 C156.32385372 263.02838764 156.32963511 269.9371235 156.34775543 276.84591675 C156.36472789 283.33997724 156.36642647 289.83391365 156.35761642 296.32799911 C156.35684229 298.71655555 156.36123788 301.10511985 156.37107468 303.49365616 C156.38368022 306.74408158 156.37797969 309.9939641 156.36749268 313.24438477 C156.37957728 314.67564021 156.37957728 314.67564021 156.39190602 316.1358099 C156.38531618 317.00381505 156.37872633 317.8718202 156.3719368 318.76612854 C156.37253389 319.5167283 156.37313097 320.26732805 156.37374616 321.04067326 C155.89211154 323.56559441 155.02130073 324.45391121 153 326 C150.29663086 326.37473011 150.29663086 326.37473011 146.96484375 326.3742218 C145.07197632 326.38474327 145.07197632 326.38474327 143.14086914 326.39547729 C141.73974451 326.38804935 140.33862146 326.38031819 138.9375 326.37231445 C137.46410871 326.37474203 135.99071907 326.37846102 134.51733398 326.38337708 C130.51321796 326.39279445 126.50934601 326.38335364 122.50524902 326.37004495 C118.31860307 326.3587418 114.13196933 326.36283707 109.9453125 326.36479187 C102.91402186 326.36567521 95.88282756 326.3545862 88.8515625 326.33618164 C80.71779474 326.31501339 72.58416814 326.3115039 64.45037842 326.3177436 C56.63193901 326.32343474 48.81354941 326.31779455 40.99511719 326.30657005 C37.66502971 326.30192075 34.33497266 326.30105165 31.00488281 326.3031559 C27.08474939 326.30503707 23.16476001 326.29694816 19.24465942 326.2810955 C17.80429683 326.27684648 16.36391964 326.27600625 14.92355347 326.27878571 C12.96074776 326.28199916 10.99793365 326.27171612 9.03515625 326.26069641 C7.9356665 326.25864354 6.83617676 326.25659067 5.70336914 326.25447559 C3 326 3 326 0 324 C-0.37259549 321.67410553 -0.37259549 321.67410553 -0.36914349 318.69387627 C-0.37511663 317.561274 -0.38108978 316.42867174 -0.38724393 315.26174819 C-0.3785054 314.00690663 -0.36976688 312.75206506 -0.36076355 311.459198 C-0.36207072 310.1210347 -0.36469552 308.78287215 -0.36853105 307.44471371 C-0.37526538 303.75502503 -0.36320321 300.0655957 -0.34819686 296.37594008 C-0.33528297 292.40184118 -0.33962266 288.42775778 -0.34190369 284.4536438 C-0.34347938 277.5640807 -0.33403939 270.6746026 -0.31719017 263.78506088 C-0.29284465 253.82386286 -0.28499947 243.86270608 -0.2812262 233.90148152 C-0.27465471 217.7414266 -0.25467468 201.58141701 -0.22631836 185.42138672 C-0.1987958 169.72021716 -0.17755341 154.0190599 -0.16479492 138.31787109 C-0.16400675 137.35060997 -0.16321858 136.38334885 -0.16240653 135.38677679 C-0.15849151 130.53447905 -0.15470036 125.68218122 -0.15097082 120.82988334 C-0.11985321 80.55322401 -0.06699848 40.27661459 0 0 Z " fill="#000000" transform="translate(150,386)"/>
<path d="M0 0 C1.12019531 -0.00128906 2.24039063 -0.00257813 3.39453125 -0.00390625 C4.57402344 -0.00003906 5.75351563 0.00382813 6.96875 0.0078125 C8.73798828 0.00201172 8.73798828 0.00201172 10.54296875 -0.00390625 C12.22326172 -0.00197266 12.22326172 -0.00197266 13.9375 0 C14.97326172 0.00112793 16.00902344 0.00225586 17.07617188 0.00341797 C19.46875 0.1328125 19.46875 0.1328125 20.46875 1.1328125 C22.65167774 1.36762943 24.84078174 1.54644573 27.03125 1.6953125 C28.22878906 1.77910156 29.42632812 1.86289063 30.66015625 1.94921875 C31.58699219 2.00980469 32.51382813 2.07039062 33.46875 2.1328125 C33.46875 2.7928125 33.46875 3.4528125 33.46875 4.1328125 C35.77875 4.1328125 38.08875 4.1328125 40.46875 4.1328125 C40.46875 4.7928125 40.46875 5.4528125 40.46875 6.1328125 C41.7990625 6.0709375 41.7990625 6.0709375 43.15625 6.0078125 C46.44152013 6.13178496 48.52324295 6.74669154 51.46875 8.1328125 C51.46875 8.7928125 51.46875 9.4528125 51.46875 10.1328125 C52.78875 10.1328125 54.10875 10.1328125 55.46875 10.1328125 C55.46875 10.7928125 55.46875 11.4528125 55.46875 12.1328125 C56.066875 12.2565625 56.665 12.3803125 57.28125 12.5078125 C59.46875 13.1328125 59.46875 13.1328125 62.46875 15.1328125 C62.46875 15.7928125 62.46875 16.4528125 62.46875 17.1328125 C64.44875 17.7928125 66.42875 18.4528125 68.46875 19.1328125 C68.46875 19.7928125 68.46875 20.4528125 68.46875 21.1328125 C69.644375 21.473125 69.644375 21.473125 70.84375 21.8203125 C73.46875 23.1328125 73.46875 23.1328125 74.78125 25.7578125 C75.1215625 26.9334375 75.1215625 26.9334375 75.46875 28.1328125 C76.12875 28.1328125 76.78875 28.1328125 77.46875 28.1328125 C77.46875 28.7928125 77.46875 29.4528125 77.46875 30.1328125 C78.12875 30.1328125 78.78875 30.1328125 79.46875 30.1328125 C79.46875 31.4528125 79.46875 32.7728125 79.46875 34.1328125 C80.12875 34.1328125 80.78875 34.1328125 81.46875 34.1328125 C81.46875 34.7928125 81.46875 35.4528125 81.46875 36.1328125 C82.45875 36.4628125 83.44875 36.7928125 84.46875 37.1328125 C86.46875 40.1328125 86.46875 40.1328125 86.46875 43.1328125 C87.12875 43.1328125 87.78875 43.1328125 88.46875 43.1328125 C88.46875 44.4528125 88.46875 45.7728125 88.46875 47.1328125 C89.12875 47.1328125 89.78875 47.1328125 90.46875 47.1328125 C90.46875 48.7828125 90.46875 50.4328125 90.46875 52.1328125 C91.12875 52.1328125 91.78875 52.1328125 92.46875 52.1328125 C92.46875 54.1128125 92.46875 56.0928125 92.46875 58.1328125 C93.12875 58.1328125 93.78875 58.1328125 94.46875 58.1328125 C94.46875 61.1028125 94.46875 64.0728125 94.46875 67.1328125 C95.12875 67.1328125 95.78875 67.1328125 96.46875 67.1328125 C97.6010581 70.75799752 97.59803795 74.16297125 97.6015625 77.9453125 C97.60251923 78.59604736 97.60347595 79.24678223 97.60446167 79.91723633 C97.60514018 81.28890073 97.60330887 82.66056839 97.59912109 84.03222656 C97.59376812 86.12572476 97.59907716 88.21900843 97.60546875 90.3125 C97.60480791 91.64843797 97.60352663 92.98437581 97.6015625 94.3203125 C97.60043457 95.53074219 97.59930664 96.74117188 97.59814453 97.98828125 C97.49166165 100.57601614 97.23561877 102.67761399 96.46875 105.1328125 C95.80875 105.1328125 95.14875 105.1328125 94.46875 105.1328125 C94.530625 106.3084375 94.5925 107.4840625 94.65625 108.6953125 C94.67222319 113.20773777 93.41128269 116.09234451 91.46875 120.1328125 C91.09566369 121.45557306 90.73828585 122.78513327 90.46875 124.1328125 C89.80875 124.1328125 89.14875 124.1328125 88.46875 124.1328125 C88.324375 124.9165625 88.18 125.7003125 88.03125 126.5078125 C87.46875 129.1328125 87.46875 129.1328125 86.46875 131.1328125 C85.80875 131.1328125 85.14875 131.1328125 84.46875 131.1328125 C84.13875 132.4528125 83.80875 133.7728125 83.46875 135.1328125 C82.80875 135.1328125 82.14875 135.1328125 81.46875 135.1328125 C81.46875 136.1228125 81.46875 137.1128125 81.46875 138.1328125 C80.80875 138.1328125 80.14875 138.1328125 79.46875 138.1328125 C79.46875 138.7928125 79.46875 139.4528125 79.46875 140.1328125 C78.80875 140.1328125 78.14875 140.1328125 77.46875 140.1328125 C77.46875 140.7928125 77.46875 141.4528125 77.46875 142.1328125 C76.80875 142.1328125 76.14875 142.1328125 75.46875 142.1328125 C75.18 142.7515625 74.89125 143.3703125 74.59375 144.0078125 C73.46875 146.1328125 73.46875 146.1328125 71.46875 148.1328125 C70.47875 148.1328125 69.48875 148.1328125 68.46875 148.1328125 C68.46875 149.1228125 68.46875 150.1128125 68.46875 151.1328125 C67.80875 151.1328125 67.14875 151.1328125 66.46875 151.1328125 C66.46875 151.7928125 66.46875 152.4528125 66.46875 153.1328125 C64.640625 154.640625 64.640625 154.640625 62.21875 156.2578125 C61.42984375 156.79664063 60.6409375 157.33546875 59.828125 157.890625 C57.46875 159.1328125 57.46875 159.1328125 53.46875 159.1328125 C53.46875 159.7928125 53.46875 160.4528125 53.46875 161.1328125 C52.14875 161.1328125 50.82875 161.1328125 49.46875 161.1328125 C49.46875 161.7928125 49.46875 162.4528125 49.46875 163.1328125 C48.68628906 163.40996094 47.90382813 163.68710937 47.09765625 163.97265625 C46.08574219 164.33488281 45.07382812 164.69710937 44.03125 165.0703125 C42.51724609 165.60978516 42.51724609 165.60978516 40.97265625 166.16015625 C38.56561255 166.90158889 38.56561255 166.90158889 37.46875 168.1328125 C35.15057911 168.45379001 32.83095643 168.64502206 30.5 168.8515625 C28.47694407 168.92347087 28.47694407 168.92347087 27.46875 170.1328125 C24.36623799 170.22155385 21.2860688 170.24799705 18.18359375 170.23046875 C17.25277481 170.2290538 16.32195587 170.22763885 15.3629303 170.22618103 C12.37733809 170.22056422 9.39181971 170.2080089 6.40625 170.1953125 C4.38737087 170.19029966 2.36849057 170.18573638 0.34960938 170.18164062 C-4.61070572 170.17058933 -9.57096532 170.15331345 -14.53125 170.1328125 C-14.53125 169.4728125 -14.53125 168.8128125 -14.53125 168.1328125 C-15.748125 168.2359375 -16.965 168.3390625 -18.21875 168.4453125 C-24.83233102 168.49813663 -30.55669999 165.71839829 -36.53125 163.1328125 C-36.53125 162.4728125 -36.53125 161.8128125 -36.53125 161.1328125 C-37.85125 161.1328125 -39.17125 161.1328125 -40.53125 161.1328125 C-40.53125 160.4728125 -40.53125 159.8128125 -40.53125 159.1328125 C-41.706875 158.91625 -41.706875 158.91625 -42.90625 158.6953125 C-45.53125 158.1328125 -45.53125 158.1328125 -47.53125 157.1328125 C-47.53125 156.4728125 -47.53125 155.8128125 -47.53125 155.1328125 C-48.459375 154.8646875 -49.3875 154.5965625 -50.34375 154.3203125 C-53.28906025 153.22304005 -54.68142877 152.59924081 -56.53125 150.1328125 C-56.53125 149.4728125 -56.53125 148.8128125 -56.53125 148.1328125 C-57.19125 148.1328125 -57.85125 148.1328125 -58.53125 148.1328125 C-58.53125 147.4728125 -58.53125 146.8128125 -58.53125 146.1328125 C-59.19125 146.1328125 -59.85125 146.1328125 -60.53125 146.1328125 C-60.53125 145.4728125 -60.53125 144.8128125 -60.53125 144.1328125 C-61.19125 144.1328125 -61.85125 144.1328125 -62.53125 144.1328125 C-62.53125 143.4728125 -62.53125 142.8128125 -62.53125 142.1328125 C-63.19125 142.1328125 -63.85125 142.1328125 -64.53125 142.1328125 C-64.53125 141.4728125 -64.53125 140.8128125 -64.53125 140.1328125 C-65.19125 140.1328125 -65.85125 140.1328125 -66.53125 140.1328125 C-71.53125 134.77566964 -71.53125 134.77566964 -71.53125 131.1328125 C-72.19125 131.1328125 -72.85125 131.1328125 -73.53125 131.1328125 C-73.53125 129.8128125 -73.53125 128.4928125 -73.53125 127.1328125 C-74.19125 127.1328125 -74.85125 127.1328125 -75.53125 127.1328125 C-77.02946059 123.76183867 -77.53125 121.92839131 -77.53125 118.1328125 C-78.19125 118.1328125 -78.85125 118.1328125 -79.53125 118.1328125 C-79.840625 116.9984375 -80.15 115.8640625 -80.46875 114.6953125 C-81.16049531 111.34506151 -81.16049531 111.34506151 -82.53125 110.1328125 C-83.37004784 104.73423389 -83.69052293 99.44021565 -83.69921875 93.9765625 C-83.70254715 93.2299939 -83.70587555 92.48342529 -83.70930481 91.7142334 C-83.71432992 90.14787404 -83.71671452 88.58150413 -83.71655273 87.01513672 C-83.71874446 84.6388165 -83.73696138 82.2629575 -83.75585938 79.88671875 C-83.75879334 78.35416823 -83.76077811 76.82161554 -83.76171875 75.2890625 C-83.76890427 74.58986694 -83.77608978 73.89067139 -83.78349304 73.17028809 C-83.76080279 68.1972974 -82.88194372 63.9218404 -81.53125 59.1328125 C-81.32242188 58.3696875 -81.11359375 57.6065625 -80.8984375 56.8203125 C-80.21484375 54.4765625 -80.21484375 54.4765625 -79.53125 52.1328125 C-78.87125 52.1328125 -78.21125 52.1328125 -77.53125 52.1328125 C-77.53125 50.4828125 -77.53125 48.8328125 -77.53125 47.1328125 C-76.87125 47.1328125 -76.21125 47.1328125 -75.53125 47.1328125 C-75.53125 45.8128125 -75.53125 44.4928125 -75.53125 43.1328125 C-74.87125 43.1328125 -74.21125 43.1328125 -73.53125 43.1328125 C-73.53125 42.1428125 -73.53125 41.1528125 -73.53125 40.1328125 C-72.87125 40.1328125 -72.21125 40.1328125 -71.53125 40.1328125 C-71.386875 39.5140625 -71.2425 38.8953125 -71.09375 38.2578125 C-70.53125 36.1328125 -70.53125 36.1328125 -69.53125 34.1328125 C-68.87125 34.1328125 -68.21125 34.1328125 -67.53125 34.1328125 C-67.20125 32.8128125 -66.87125 31.4928125 -66.53125 30.1328125 C-65.87125 30.1328125 -65.21125 30.1328125 -64.53125 30.1328125 C-64.53125 29.4728125 -64.53125 28.8128125 -64.53125 28.1328125 C-63.87125 28.1328125 -63.21125 28.1328125 -62.53125 28.1328125 C-62.263125 27.3490625 -61.995 26.5653125 -61.71875 25.7578125 C-60.53125 23.1328125 -60.53125 23.1328125 -57.53125 21.1328125 C-56.54125 21.1328125 -55.55125 21.1328125 -54.53125 21.1328125 C-54.53125 20.4728125 -54.53125 19.8128125 -54.53125 19.1328125 C-53.54125 19.1328125 -52.55125 19.1328125 -51.53125 19.1328125 C-51.53125 18.4728125 -51.53125 17.8128125 -51.53125 17.1328125 C-50.87125 17.1328125 -50.21125 17.1328125 -49.53125 17.1328125 C-49.53125 16.4728125 -49.53125 15.8128125 -49.53125 15.1328125 C-47.81591539 14.15742615 -46.10027607 13.18257028 -44.3828125 12.2109375 C-42.96246762 11.38390124 -41.58060562 10.49048521 -40.21875 9.5703125 C-36.93464251 7.81369687 -33.6403606 6.89032134 -30.0625 5.890625 C-27.84831685 5.22773683 -25.83224359 4.43022708 -23.71875 3.5078125 C-19.02518192 1.65356338 -14.18658575 1.58461973 -9.19140625 1.34375 C-5.79762044 1.07463923 -3.73801547 0.00407065 0 0 Z " fill="#020202" transform="translate(221.53125,234.8671875)"/>
<path d="M0 0 C1.29997925 0.00303635 1.29997925 0.00303635 2.6262207 0.00613403 C3.51027588 0.00517731 4.39433105 0.00422058 5.30517578 0.00323486 C7.178142 0.00255302 9.05111056 0.0044076 10.92407227 0.00857544 C13.80140458 0.01392364 16.67858078 0.0086306 19.5559082 0.00222778 C21.37101272 0.00288856 23.18611713 0.00416972 25.0012207 0.00613403 C25.86787354 0.0041098 26.73452637 0.00208557 27.62744141 0 C33.69877061 0.02399644 33.69877061 0.02399644 34.8137207 1.13894653 C36.18521324 1.29787485 37.56153562 1.41590963 38.9387207 1.51394653 C43.37240183 1.96151056 46.75337275 3.25378498 50.8137207 5.13894653 C53.79538383 6.19664726 56.8004101 7.17550709 59.8137207 8.13894653 C59.8137207 8.79894653 59.8137207 9.45894653 59.8137207 10.13894653 C60.3912207 10.26269653 60.9687207 10.38644653 61.5637207 10.51394653 C63.83707837 11.14543477 65.7390736 12.02752844 67.8137207 13.13894653 C67.8137207 13.79894653 67.8137207 14.45894653 67.8137207 15.13894653 C68.8037207 15.13894653 69.7937207 15.13894653 70.8137207 15.13894653 C70.8137207 15.79894653 70.8137207 16.45894653 70.8137207 17.13894653 C72.7937207 17.79894653 74.7737207 18.45894653 76.8137207 19.13894653 C76.8137207 19.79894653 76.8137207 20.45894653 76.8137207 21.13894653 C77.4737207 21.13894653 78.1337207 21.13894653 78.8137207 21.13894653 C78.8137207 21.79894653 78.8137207 22.45894653 78.8137207 23.13894653 C79.4737207 23.13894653 80.1337207 23.13894653 80.8137207 23.13894653 C80.8137207 24.12894653 80.8137207 25.11894653 80.8137207 26.13894653 C81.5974707 26.40707153 82.3812207 26.67519653 83.1887207 26.95144653 C85.8137207 28.13894653 85.8137207 28.13894653 87.8137207 31.13894653 C87.8137207 32.12894653 87.8137207 33.11894653 87.8137207 34.13894653 C88.4737207 34.13894653 89.1337207 34.13894653 89.8137207 34.13894653 C89.8137207 34.79894653 89.8137207 35.45894653 89.8137207 36.13894653 C90.4737207 36.13894653 91.1337207 36.13894653 91.8137207 36.13894653 C93.27434921 38.7863357 93.8137207 40.03342988 93.8137207 43.13894653 C94.4737207 43.13894653 95.1337207 43.13894653 95.8137207 43.13894653 C102.32904632 57.11456866 103.98563165 68.26779327 103.9387207 83.63894653 C103.94258789 84.90609497 103.94645508 86.17324341 103.95043945 87.47879028 C103.94027542 97.24642153 103.75388397 106.09370217 99.8137207 115.13894653 C99.45536133 115.96394653 99.09700195 116.78894653 98.7277832 117.63894653 C97.77019985 119.81218536 96.79906858 121.97818367 95.8137207 124.13894653 C95.1537207 124.13894653 94.4937207 124.13894653 93.8137207 124.13894653 C93.6693457 124.92269653 93.5249707 125.70644653 93.3762207 126.51394653 C92.8137207 129.13894653 92.8137207 129.13894653 91.8137207 131.13894653 C91.1537207 131.13894653 90.4937207 131.13894653 89.8137207 131.13894653 C89.4734082 132.46925903 89.4734082 132.46925903 89.1262207 133.82644653 C87.62982224 137.60307123 85.88880334 139.52512629 82.8137207 142.13894653 C82.1537207 142.13894653 81.4937207 142.13894653 80.8137207 142.13894653 C80.8137207 142.79894653 80.8137207 143.45894653 80.8137207 144.13894653 C80.1537207 144.13894653 79.4937207 144.13894653 78.8137207 144.13894653 C78.8137207 144.79894653 78.8137207 145.45894653 78.8137207 146.13894653 C78.1537207 146.13894653 77.4937207 146.13894653 76.8137207 146.13894653 C76.8137207 146.79894653 76.8137207 147.45894653 76.8137207 148.13894653 C76.1537207 148.13894653 75.4937207 148.13894653 74.8137207 148.13894653 C74.8137207 148.79894653 74.8137207 149.45894653 74.8137207 150.13894653 C73.4937207 150.46894653 72.1737207 150.79894653 70.8137207 151.13894653 C70.8137207 151.79894653 70.8137207 152.45894653 70.8137207 153.13894653 C69.8237207 153.13894653 68.8337207 153.13894653 67.8137207 153.13894653 C67.8137207 153.79894653 67.8137207 154.45894653 67.8137207 155.13894653 C61.3137207 159.13894653 61.3137207 159.13894653 56.8137207 159.13894653 C56.8137207 159.79894653 56.8137207 160.45894653 56.8137207 161.13894653 C52.19174764 163.3574936 49.04547907 164.52175812 43.8137207 164.13894653 C43.8137207 164.79894653 43.8137207 165.45894653 43.8137207 166.13894653 C37.675041 167.03440327 31.70440235 167.29937404 25.50512695 167.30691528 C24.53896957 167.31024368 23.57281219 167.31357208 22.57737732 167.31700134 C20.54442823 167.32203901 18.51147095 167.32441065 16.47851562 167.32424927 C13.38893898 167.32643753 10.29971882 167.34463199 7.21020508 167.36355591 C5.22518024 167.36649025 3.24015373 167.36847477 1.25512695 167.36941528 C-0.11403114 167.38019356 -0.11403114 167.38019356 -1.510849 167.39118958 C-9.23474826 167.36401358 -16.29757211 166.16462375 -23.4362793 163.13894653 C-24.22518555 162.80894653 -25.0140918 162.47894653 -25.8269043 162.13894653 C-26.60549805 161.80894653 -27.3840918 161.47894653 -28.1862793 161.13894653 C-29.85165959 160.46907289 -31.51798564 159.80153125 -33.1862793 159.13894653 C-33.1862793 158.47894653 -33.1862793 157.81894653 -33.1862793 157.13894653 C-34.5062793 157.13894653 -35.8262793 157.13894653 -37.1862793 157.13894653 C-37.1862793 156.47894653 -37.1862793 155.81894653 -37.1862793 155.13894653 C-38.5062793 155.13894653 -39.8262793 155.13894653 -41.1862793 155.13894653 C-41.1862793 154.47894653 -41.1862793 153.81894653 -41.1862793 153.13894653 C-42.1762793 153.13894653 -43.1662793 153.13894653 -44.1862793 153.13894653 C-44.1862793 152.47894653 -44.1862793 151.81894653 -44.1862793 151.13894653 C-44.8462793 151.13894653 -45.5062793 151.13894653 -46.1862793 151.13894653 C-46.1862793 150.47894653 -46.1862793 149.81894653 -46.1862793 149.13894653 C-47.5062793 148.80894653 -48.8262793 148.47894653 -50.1862793 148.13894653 C-50.1862793 147.47894653 -50.1862793 146.81894653 -50.1862793 146.13894653 C-50.8462793 146.13894653 -51.5062793 146.13894653 -52.1862793 146.13894653 C-52.1862793 145.47894653 -52.1862793 144.81894653 -52.1862793 144.13894653 C-52.7431543 143.93269653 -53.3000293 143.72644653 -53.8737793 143.51394653 C-57.18231161 141.5467111 -58.90184209 139.2483194 -61.1862793 136.13894653 C-61.1862793 135.14894653 -61.1862793 134.15894653 -61.1862793 133.13894653 C-61.8462793 133.13894653 -62.5062793 133.13894653 -63.1862793 133.13894653 C-63.1862793 132.47894653 -63.1862793 131.81894653 -63.1862793 131.13894653 C-63.8462793 131.13894653 -64.5062793 131.13894653 -65.1862793 131.13894653 C-65.1862793 129.81894653 -65.1862793 128.49894653 -65.1862793 127.13894653 C-66.1762793 126.80894653 -67.1662793 126.47894653 -68.1862793 126.13894653 C-69.28393555 124.46707153 -69.28393555 124.46707153 -70.2487793 122.38894653 C-70.75731445 121.30033325 -70.75731445 121.30033325 -71.27612305 120.18972778 C-74.80967632 112.22785882 -76.41187986 105.30559848 -76.94018555 96.61550903 C-76.91628291 94.19770253 -76.91628291 94.19770253 -78.1862793 93.13894653 C-78.27279541 91.7232453 -78.29332834 90.30335153 -78.28393555 88.88504028 C-78.28071289 88.03103638 -78.27749023 87.17703247 -78.27416992 86.29714966 C-78.26579102 85.39931763 -78.25741211 84.5014856 -78.2487793 83.57644653 C-78.24426758 82.67474731 -78.23975586 81.7730481 -78.23510742 80.84402466 C-78.22328154 78.6089334 -78.2068015 76.37397217 -78.1862793 74.13894653 C-77.5262793 74.13894653 -76.8662793 74.13894653 -76.1862793 74.13894653 C-76.19788086 73.2842981 -76.20948242 72.42964966 -76.22143555 71.54910278 C-76.2349707 69.89201294 -76.2349707 69.89201294 -76.2487793 68.20144653 C-76.26038086 67.0992981 -76.27198242 65.99714966 -76.28393555 64.86160278 C-76.1862793 62.13894653 -76.1862793 62.13894653 -75.1862793 61.13894653 C-74.81867199 58.8107669 -74.48386349 56.47710803 -74.1862793 54.13894653 C-73.5262793 54.13894653 -72.8662793 54.13894653 -72.1862793 54.13894653 C-72.1862793 52.48894653 -72.1862793 50.83894653 -72.1862793 49.13894653 C-71.5262793 49.13894653 -70.8662793 49.13894653 -70.1862793 49.13894653 C-70.1862793 47.81894653 -70.1862793 46.49894653 -70.1862793 45.13894653 C-69.5262793 45.13894653 -68.8662793 45.13894653 -68.1862793 45.13894653 C-67.8562793 43.81894653 -67.5262793 42.49894653 -67.1862793 41.13894653 C-66.5262793 41.13894653 -65.8662793 41.13894653 -65.1862793 41.13894653 C-64.9697168 39.96332153 -64.9697168 39.96332153 -64.7487793 38.76394653 C-64.1862793 36.13894653 -64.1862793 36.13894653 -63.1862793 34.13894653 C-62.5262793 34.13894653 -61.8662793 34.13894653 -61.1862793 34.13894653 C-60.9594043 33.43769653 -60.7325293 32.73644653 -60.4987793 32.01394653 C-58.84786642 28.39766118 -56.8953958 26.05124677 -54.1862793 23.13894653 C-53.5262793 23.13894653 -52.8662793 23.13894653 -52.1862793 23.13894653 C-52.1862793 22.47894653 -52.1862793 21.81894653 -52.1862793 21.13894653 C-50.2062793 20.47894653 -48.2262793 19.81894653 -46.1862793 19.13894653 C-46.1862793 18.47894653 -46.1862793 17.81894653 -46.1862793 17.13894653 C-45.5262793 17.13894653 -44.8662793 17.13894653 -44.1862793 17.13894653 C-44.1862793 16.47894653 -44.1862793 15.81894653 -44.1862793 15.13894653 C-43.1962793 15.13894653 -42.2062793 15.13894653 -41.1862793 15.13894653 C-41.1862793 14.47894653 -41.1862793 13.81894653 -41.1862793 13.13894653 C-39.8662793 13.13894653 -38.5462793 13.13894653 -37.1862793 13.13894653 C-36.8562793 12.14894653 -36.5262793 11.15894653 -36.1862793 10.13894653 C-31.0328308 7.1405765 -25.92885164 5.32050447 -20.19018555 3.75222778 C-18.20787066 3.31694438 -18.20787066 3.31694438 -17.1862793 2.13894653 C-14.60730236 1.81657442 -12.02696109 1.62627349 -9.4362793 1.42019653 C-6.15930474 1.01057471 -3.66078391 0.01446895 0 0 Z " fill="#020202" transform="translate(829.186279296875,547.8610534667969)"/>
<path d="M0 0 C0 1.65 0 3.3 0 5 C-2.90600261 6.25664978 -4.79604584 7 -8 7 C-8 7.66 -8 8.32 -8 9 C-8.99 9 -9.98 9 -11 9 C-11.433125 9.8971875 -11.433125 9.8971875 -11.875 10.8125 C-13 13 -13 13 -15 16 C-15.66 16 -16.32 16 -17 16 C-17 16.66 -17 17.32 -17 18 C-17.66 18 -18.32 18 -19 18 C-19 18.66 -19 19.32 -19 20 C-19.66 20 -20.32 20 -21 20 C-21 20.66 -21 21.32 -21 22 C-22.98 22 -24.96 22 -27 22 C-27 21.01 -27 20.02 -27 19 C-26.34 19 -25.68 19 -25 19 C-25 18.34 -25 17.68 -25 17 C-24.34 17 -23.68 17 -23 17 C-23 16.34 -23 15.68 -23 15 C-18.52941176 11 -18.52941176 11 -16 11 C-15.34 9.35 -14.68 7.7 -14 6 C-13.34 6 -12.68 6 -12 6 C-12 5.34 -12 4.68 -12 4 C-4.71428571 -0.57142857 -4.71428571 -0.57142857 0 0 Z " fill="#0A0A0A" transform="translate(396,659)"/>
<path d="M0 0 C2 2 2 2 2.22705078 4.88916016 C2.21657715 6.09362793 2.20610352 7.2980957 2.1953125 8.5390625 C2.18564453 10.49199219 2.18564453 10.49199219 2.17578125 12.484375 C2.15906929 13.86458595 2.14213939 15.24479429 2.125 16.625 C2.11497006 18.01301452 2.10584423 19.40103589 2.09765625 20.7890625 C2.07401863 24.19288026 2.04106867 27.59635506 2 31 C1.01 31 0.02 31 -1 31 C-2.33616914 20.85943065 -3.76019376 9.69030171 0 0 Z " fill="#212121" transform="translate(931,615)"/>
<path d="M0 0 C0.66 0.33 1.32 0.66 2 1 C1.67 3.31 1.34 5.62 1 8 C0.34 8 -0.32 8 -1 8 C-1 9.32 -1 10.64 -1 12 C-1.66 12 -2.32 12 -3 12 C-3 13.98 -3 15.96 -3 18 C-4.98 18.99 -4.98 18.99 -7 20 C-9 17 -9 17 -8.75 15.0625 C-7.97936717 12.94325972 -7.0643413 10.98677042 -6 9 C-5.34 9 -4.68 9 -4 9 C-4 7.68 -4 6.36 -4 5 C-3.34 4.67 -2.68 4.34 -2 4 C-0.86649466 1.98330173 -0.86649466 1.98330173 0 0 Z " fill="#151515" transform="translate(367,684)"/>
<path d="M0 0 C1.65 0 3.3 0 5 0 C5.66 1.65 6.32 3.3 7 5 C5.15170059 6.84829941 2.24305571 6.47229228 -0.25 6.6875 C-1.95929687 6.84798828 -1.95929687 6.84798828 -3.703125 7.01171875 C-7.03166014 6.99988746 -9.03968007 6.45233741 -12 5 C-11.67 4.34 -11.34 3.68 -11 3 C-7.7 3 -4.4 3 -1 3 C-0.67 2.01 -0.34 1.02 0 0 Z " fill="#0C0C0C" transform="translate(594,708)"/>
<path d="M0 0 C0 1.65 0 3.3 0 5 C-2.90600261 6.25664978 -4.79604584 7 -8 7 C-8 7.66 -8 8.32 -8 9 C-10.31 9 -12.62 9 -15 9 C-14.67 8.01 -14.34 7.02 -14 6 C-13.34 6 -12.68 6 -12 6 C-12 5.34 -12 4.68 -12 4 C-4.71428571 -0.57142857 -4.71428571 -0.57142857 0 0 Z " fill="#0F0F0F" transform="translate(396,659)"/>
<path d="M0 0 C0.99 0 1.98 0 3 0 C3 1.32 3 2.64 3 4 C2.34 4 1.68 4 1 4 C1 4.66 1 5.32 1 6 C-0.32 6.33 -1.64 6.66 -3 7 C-3 7.66 -3 8.32 -3 9 C-4.65 9 -6.3 9 -8 9 C-7.62005832 6.24542282 -7.1926367 5.17979426 -5.125 3.25 C-3 2 -3 2 0 2 C0 1.34 0 0.68 0 0 Z " fill="#0A0A0A" transform="translate(903,692)"/>
<path d="M0 0 C0.33 0.66 0.66 1.32 1 2 C1.99 2 2.98 2 4 2 C4 3.98 4 5.96 4 8 C2.02 8.99 2.02 8.99 0 10 C-2 7 -2 7 -1.6875 5 C-1.460625 4.34 -1.23375 3.68 -1 3 C-0.67 2.01 -0.34 1.02 0 0 Z " fill="#070707" transform="translate(360,694)"/>
<path d="M0 0 C1.77049689 -0.05410687 3.54146849 -0.09284119 5.3125 -0.125 C6.29863281 -0.14820313 7.28476562 -0.17140625 8.30078125 -0.1953125 C11 0 11 0 14 2 C13.67 2.99 13.34 3.98 13 5 C11.01853549 4.55170486 9.03985789 4.09107502 7.0625 3.625 C5.96035156 3.36976563 4.85820313 3.11453125 3.72265625 2.8515625 C2.82417969 2.57054687 1.92570313 2.28953125 1 2 C0.67 1.34 0.34 0.68 0 0 Z " fill="#8A8A8A" transform="translate(566,682)"/>
<path d="M0 0 C-7.92 3.96 -7.92 3.96 -16 8 C-16 7.01 -16 6.02 -16 5 C-15.01 5 -14.02 5 -13 5 C-13 4.34 -13 3.68 -13 3 C-11.68 3 -10.36 3 -9 3 C-9 2.34 -9 1.68 -9 1 C-5.19495213 -0.79682816 -4.29399165 -1.07349791 0 0 Z " fill="#4D4D4D" transform="translate(647,695)"/>
<path d="M0 0 C0.33 0.66 0.66 1.32 1 2 C2.65 2 4.3 2 6 2 C5.67 2.99 5.34 3.98 5 5 C1.62182575 5.84454356 -0.67465243 6.10844919 -4 5 C-4 4.34 -4 3.68 -4 3 C-2 1.375 -2 1.375 0 0 Z " fill="#363636" transform="translate(530,704)"/>
<path d="M0 0 C0 1.65 0 3.3 0 5 C-2.31 5.66 -4.62 6.32 -7 7 C-7 5.68 -7 4.36 -7 3 C-4.49515403 0.58152803 -3.53986194 0 0 0 Z " fill="#282828" transform="translate(396,659)"/>
<path d="M0 0 C1.98 0 3.96 0 6 0 C6 0.66 6 1.32 6 2 C6.66 2 7.32 2 8 2 C8 2.66 8 3.32 8 4 C5.36 4 2.72 4 0 4 C0 2.68 0 1.36 0 0 Z " fill="#292929" transform="translate(857,711)"/>
<path d="M0 0 C-0.33 1.98 -0.66 3.96 -1 6 C-2.98 6 -4.96 6 -7 6 C-7 5.01 -7 4.02 -7 3 C-6.34 3 -5.68 3 -5 3 C-5 2.34 -5 1.68 -5 1 C-2 0 -2 0 0 0 Z " fill="#141414" transform="translate(376,675)"/>
<path d="M0 0 C0.928125 0.0825 1.85625 0.165 2.8125 0.25 C2.4825 1.57 2.1525 2.89 1.8125 4.25 C-0.8275 4.25 -3.4675 4.25 -6.1875 4.25 C-4.36434338 1.00883268 -3.82500054 0.30000004 0 0 Z " fill="#222222" transform="translate(826.1875,710.75)"/>
<path d="M0 0 C-0.33 1.65 -0.66 3.3 -1 5 C-1.66 5 -2.32 5 -3 5 C-3.33 5.66 -3.66 6.32 -4 7 C-4.66 5.02 -5.32 3.04 -6 1 C-3 0 -3 0 0 0 Z M-8 3 C-7.01 3.495 -7.01 3.495 -6 4 C-6.99 4.495 -6.99 4.495 -8 5 C-8 4.34 -8 3.68 -8 3 Z " fill="#080808" transform="translate(373,681)"/>
<path d="M0 0 C0.75 1.75 0.75 1.75 1 4 C-0.8125 6.25 -0.8125 6.25 -3 8 C-3.66 8 -4.32 8 -5 8 C-3.375 2.25 -3.375 2.25 0 0 Z " fill="#0F0F0F" transform="translate(697,652)"/>
<path d="M0 0 C-4.43076923 2.09230769 -4.43076923 2.09230769 -7.3125 1.625 C-7.869375 1.41875 -8.42625 1.2125 -9 1 C-9 0.34 -9 -0.32 -9 -1 C-5.22102349 -2.0497157 -3.35080929 -2.10976881 0 0 Z " fill="#141414" transform="translate(569,685)"/>
<path d="M0 0 C1.65 0.33 3.3 0.66 5 1 C5 2.32 5 3.64 5 5 C2.03 4.505 2.03 4.505 -1 4 C-0.67 2.68 -0.34 1.36 0 0 Z " fill="#373737" transform="translate(605,706)"/>
<path d="M0 0 C0.99 0 1.98 0 3 0 C3 1.32 3 2.64 3 4 C2.34 4 1.68 4 1 4 C1 4.66 1 5.32 1 6 C0.01 6 -0.98 6 -2 6 C-2 4.68 -2 3.36 -2 2 C-1.34 2 -0.68 2 0 2 C0 1.34 0 0.68 0 0 Z " fill="#303030" transform="translate(903,692)"/>
<path d="M0 0 C1.32 0 2.64 0 4 0 C4 0.66 4 1.32 4 2 C5.32 2.33 6.64 2.66 8 3 C5.21176345 4.0326802 4.1322726 4.04509293 1.25 3.0625 C0.5075 2.711875 -0.235 2.36125 -1 2 C-0.67 1.34 -0.34 0.68 0 0 Z " fill="#434343" transform="translate(583,711)"/>
<path d="M0 0 C1.32 0 2.64 0 4 0 C3.34 1.65 2.68 3.3 2 5 C1.01 5 0.02 5 -1 5 C-1.33 4.01 -1.66 3.02 -2 2 C-1.34 1.34 -0.68 0.68 0 0 Z " fill="#434343" transform="translate(452,663)"/>
<path d="M0 0 C-0.33 0.99 -0.66 1.98 -1 3 C-3.31 3.33 -5.62 3.66 -8 4 C-8 3.34 -8 2.68 -8 2 C-4.91190305 0.23537317 -3.76687864 0 0 0 Z " fill="#323232" transform="translate(556,711)"/>
<path d="M0 0 C2.475 0.99 2.475 0.99 5 2 C4.67 2.99 4.34 3.98 4 5 C3.01 5 2.02 5 1 5 C1 4.34 1 3.68 1 3 C0.34 3 -0.32 3 -1 3 C-0.67 2.01 -0.34 1.02 0 0 Z " fill="#3F3F3F" transform="translate(612,704)"/>
<path d="M0 0 C1.32 0 2.64 0 4 0 C4 1.65 4 3.3 4 5 C3.01 5 2.02 5 1 5 C0.67 3.35 0.34 1.7 0 0 Z " fill="#131313" transform="translate(358,698)"/>
<path d="M0 0 C2.475 0.495 2.475 0.495 5 1 C5 2.32 5 3.64 5 5 C2.5 3.625 2.5 3.625 0 2 C0 1.34 0 0.68 0 0 Z " fill="#464646" transform="translate(595,709)"/>
<path d="M0 0 C-3.44069624 2.29379749 -4.72290301 3 -9 3 C-9 2.34 -9 1.68 -9 1 C-5.57367167 -0.61798838 -3.61944899 -1.34053666 0 0 Z " fill="#666666" transform="translate(647,695)"/>
<path d="M0 0 C0.33 0.66 0.66 1.32 1 2 C2.32 2 3.64 2 5 2 C4.67 2.99 4.34 3.98 4 5 C1.03 4.505 1.03 4.505 -2 4 C-1.34 2.68 -0.68 1.36 0 0 Z " fill="#4E4E4E" transform="translate(502,692)"/>
<path d="M0 0 C1.9375 0.3125 1.9375 0.3125 4 1 C4.33 1.99 4.66 2.98 5 4 C3.68 4.33 2.36 4.66 1 5 C0.67 3.35 0.34 1.7 0 0 Z " fill="#626262" transform="translate(398,657)"/>
<path d="M0 0 C0.99 0 1.98 0 3 0 C3 0.66 3 1.32 3 2 C4.32 2 5.64 2 7 2 C7 2.66 7 3.32 7 4 C4.69 3.67 2.38 3.34 0 3 C0 2.01 0 1.02 0 0 Z " fill="#888888" transform="translate(175,401)"/>
</svg>
