<?xml version="1.0" encoding="UTF-8"?>
<svg version="1.1" xmlns="http://www.w3.org/2000/svg" width="1080" height="1080">
<path d="M0 0 C3.458176 -0.0868329 6.91607344 -0.14033282 10.375 -0.1875 C11.85226562 -0.22520508 11.85226562 -0.22520508 13.359375 -0.26367188 C14.77089844 -0.27817383 14.77089844 -0.27817383 16.2109375 -0.29296875 C17.08024902 -0.3086792 17.94956055 -0.32438965 18.84521484 -0.34057617 C19.55629395 -0.22818604 20.26737305 -0.1157959 21 0 C23.07179079 3.10768619 23.24907628 3.7541877 23.24050903 7.27104187 C23.24463303 8.57721466 23.24463303 8.57721466 23.24884033 9.90977478 C23.2380545 11.33828514 23.2380545 11.33828514 23.22705078 12.7956543 C23.22734283 13.80071014 23.22763489 14.80576599 23.22793579 15.84127808 C23.22654055 19.16901227 23.21097005 22.49652359 23.1953125 25.82421875 C23.19158307 28.12921527 23.18873577 30.43421337 23.18673706 32.73921204 C23.17909514 38.81047938 23.1594418 44.88165127 23.1373291 50.95288086 C23.11688273 57.14630848 23.10773793 63.3397515 23.09765625 69.53320312 C23.07619649 81.68884406 23.04205376 93.8444141 23 106 C23.67546875 105.71125 24.3509375 105.4225 25.046875 105.125 C25.93890625 104.75375 26.8309375 104.3825 27.75 104 C28.63171875 103.62875 29.5134375 103.2575 30.421875 102.875 C33 102 33 102 37 102 C37 101.34 37 100.68 37 100 C37.845625 99.731875 38.69125 99.46375 39.5625 99.1875 C43.02791841 98.04518565 43.02791841 98.04518565 46.375 96.5 C53.17372953 93.68673261 59.48970309 92.73728274 66.77734375 92.24609375 C68.97072742 92.23760466 68.97072742 92.23760466 70 91 C72.27947792 90.8997907 74.56207135 90.86918697 76.84375 90.8671875 C77.52804077 90.86623077 78.21233154 90.86527405 78.9173584 90.86428833 C80.36661877 90.8636067 81.81588218 90.86545977 83.26513672 90.86962891 C85.49062928 90.87497748 87.71592001 90.8696834 89.94140625 90.86328125 C91.34635461 90.86394203 92.75130285 90.8652232 94.15625 90.8671875 C95.44337891 90.86831543 96.73050781 90.86944336 98.05664062 90.87060547 C101 91 101 91 102 92 C104.83707088 92.2110218 107.65897646 92.37607813 110.5 92.5 C118.86486486 92.86486486 118.86486486 92.86486486 120 94 C121.82906235 94.20837419 123.66388134 94.36749659 125.5 94.5 C130.88888889 94.88888889 130.88888889 94.88888889 132 96 C133.82630965 96.3698855 135.66145374 96.69673464 137.5 97 C142.88888889 97.88888889 142.88888889 97.88888889 144 99 C145.155 99.165 146.31 99.33 147.5 99.5 C151 100 151 100 152 101 C154.32817964 101.36760731 156.6618385 101.70241581 159 102 C159 102.66 159 103.32 159 104 C159.886875 103.95875 160.77375 103.9175 161.6875 103.875 C164.97277013 103.99897246 167.05449295 104.61387904 170 106 C170 106.66 170 107.32 170 108 C170.70125 107.938125 171.4025 107.87625 172.125 107.8125 C175.65260212 108.04256101 177.93984351 109.29200568 181 111 C181 111.66 181 112.32 181 113 C182.32 113 183.64 113 185 113 C185 113.66 185 114.32 185 115 C186.32 115 187.64 115 189 115 C189 115.66 189 116.32 189 117 C189.70511719 117.10183594 190.41023438 117.20367187 191.13671875 117.30859375 C194.41059645 118.09914812 196.88584467 119.40523734 199.8125 121.0625 C201.27623047 121.88427734 201.27623047 121.88427734 202.76953125 122.72265625 C203.50558594 123.14417969 204.24164062 123.56570313 205 124 C205 124.66 205 125.32 205 126 C205.66 126 206.32 126 207 126 C207 126.66 207 127.32 207 128 C208.32 128 209.64 128 211 128 C211 128.66 211 129.32 211 130 C211.70125 130.2475 212.4025 130.495 213.125 130.75 C216.39514548 132.17180238 219.141122 133.87246288 222 136 C222 136.66 222 137.32 222 138 C222.66 138 223.32 138 224 138 C224 138.99 224 139.98 224 141 C224.99 141 225.98 141 227 141 C227 141.66 227 142.32 227 143 C227.66 143 228.32 143 229 143 C229 143.66 229 144.32 229 145 C229.86625 145.4021875 229.86625 145.4021875 230.75 145.8125 C233.05550043 147.02929189 235.02056192 148.30333879 237 150 C237 150.66 237 151.32 237 152 C237.66 152 238.32 152 239 152 C242 155.46153846 242 155.46153846 242 158 C242.66 158 243.32 158 244 158 C244 158.66 244 159.32 244 160 C244.66 160 245.32 160 246 160 C246 160.66 246 161.32 246 162 C246.66 162 247.32 162 248 162 C248.66 163.65 249.32 165.3 250 167 C250.66 167 251.32 167 252 167 C255 170.46153846 255 170.46153846 255 173 C255.66 173 256.32 173 257 173 C259 176 259 176 259 180 C259.66 180 260.32 180 261 180 C263 183 263 183 263 186 C263.66 186 264.32 186 265 186 C265 187.32 265 188.64 265 190 C265.66 190 266.32 190 267 190 C267.33 191.65 267.66 193.3 268 195 C268.66 195 269.32 195 270 195 C270 196.32 270 197.64 270 199 C270.66 199 271.32 199 272 199 C273.49821059 202.37097383 274 204.20442119 274 208 C274.66 208 275.32 208 276 208 C276.25523437 208.94359375 276.25523437 208.94359375 276.515625 209.90625 C277.73669394 214.21896156 278.99555331 218.23170305 281.125 222.1875 C283.02388164 225.73978049 283.58957963 228.97788038 284 233 C284.33 233.33 284.66 233.66 285 234 C285.31923492 236.0572917 285.51161352 238.11613521 285.71875 240.1875 C285.81998043 242.0167533 285.81998043 242.0167533 287 243 C287.32237212 245.57897694 287.51267304 248.15931821 287.71875 250.75 C287.76200665 252.96665352 287.76200665 252.96665352 289 254 C289.21144292 256.81630224 289.37628157 259.61717799 289.5 262.4375 C289.50937661 267.88504143 289.50937661 267.88504143 291 273 C291.09898617 275.75984651 291.13983231 278.49391456 291.1328125 281.25390625 C291.13424759 282.47798439 291.13424759 282.47798439 291.13571167 283.72679138 C291.13639256 285.45254595 291.13454461 287.17830308 291.13037109 288.90405273 C291.12501468 291.55523383 291.13032267 294.20624603 291.13671875 296.85742188 C291.13605809 298.53125038 291.13477717 300.20507877 291.1328125 301.87890625 C291.13483673 302.67680069 291.13686096 303.47469513 291.13894653 304.29676819 C291.11495544 309.88504456 291.11495544 309.88504456 290 311 C289.79111292 312.99603206 289.63224523 314.99742941 289.5 317 C289.11111111 322.88888889 289.11111111 322.88888889 288 324 C287.79300437 325.49496842 287.63320741 326.9966592 287.5 328.5 C287.11111111 332.88888889 287.11111111 332.88888889 286 334 C285.87625 335.03125 285.7525 336.0625 285.625 337.125 C284.9703127 341.18406126 283.69540253 344.27011443 282 348 C281.31163487 349.99263591 280.63718601 351.99041337 280 354 C279.34 354 278.68 354 278 354 C278.061875 355.3303125 278.061875 355.3303125 278.125 356.6875 C278.00102754 359.97277013 277.38612096 362.05449295 276 365 C275.34 365 274.68 365 274 365 C274 366.32 274 367.64 274 369 C273.34 369 272.68 369 272 369 C271.9175 369.66 271.835 370.32 271.75 371 C270.75240209 374.99039163 268.92833317 378.38549643 267 382 C266.34 382 265.68 382 265 382 C264.855625 382.598125 264.71125 383.19625 264.5625 383.8125 C264.1127561 385.56150404 263.57107659 387.28677023 263 389 C262.34 389 261.68 389 261 389 C260.855625 389.61875 260.71125 390.2375 260.5625 390.875 C260 393 260 393 259 395 C258.34 395 257.68 395 257 395 C256.87625 395.598125 256.7525 396.19625 256.625 396.8125 C256 399 256 399 254 402 C253.34 402 252.68 402 252 402 C252 402.66 252 403.32 252 404 C251.34 404 250.68 404 250 404 C249.34 405.98 248.68 407.96 248 410 C247.34 410 246.68 410 246 410 C245.34 411.65 244.68 413.3 244 415 C243.34 415 242.68 415 242 415 C242 415.66 242 416.32 242 417 C241.34 417 240.68 417 240 417 C240 417.66 240 418.32 240 419 C239.34 419.33 238.68 419.66 238 420 C237.67 420.99 237.34 421.98 237 423 C236.34 423 235.68 423 235 423 C235 423.66 235 424.32 235 425 C234.34 425 233.68 425 233 425 C232.731875 425.639375 232.46375 426.27875 232.1875 426.9375 C231 429 231 429 228 430 C228 430.66 228 431.32 228 432 C222.58823529 436 222.58823529 436 220 436 C220 436.99 220 437.98 220 439 C219.34 439 218.68 439 218 439 C218 439.66 218 440.32 218 441 C217.34 441 216.68 441 216 441 C216 441.66 216 442.32 216 443 C214.35 443.66 212.7 444.32 211 445 C211 445.66 211 446.32 211 447 C209.68 447 208.36 447 207 447 C207 447.66 207 448.32 207 449 C206.34 449 205.68 449 205 449 C205 449.66 205 450.32 205 451 C203.68 451.33 202.36 451.66 201 452 C201 452.66 201 453.32 201 454 C200.01 454 199.02 454 198 454 C198 454.66 198 455.32 198 456 C195 458 195 458 192 458 C192 458.66 192 459.32 192 460 C190.68 460 189.36 460 188 460 C188 460.66 188 461.32 188 462 C187.01 462 186.02 462 185 462 C185 462.66 185 463.32 185 464 C183.58957044 464.84384675 182.17135868 465.67469496 180.75 466.5 C179.96109375 466.9640625 179.1721875 467.428125 178.359375 467.90625 C176 469 176 469 172 469 C172 469.66 172 470.32 172 471 C170.68 471 169.36 471 168 471 C168 471.66 168 472.32 168 473 C164.17679443 474.42258812 161.08718695 475.24042276 157 475 C157 475.66 157 476.32 157 477 C155.82630859 477.41572266 155.82630859 477.41572266 154.62890625 477.83984375 C153.61699219 478.20207031 152.60507812 478.56429688 151.5625 478.9375 C150.55316406 479.29714844 149.54382813 479.65679688 148.50390625 480.02734375 C146.09686255 480.76877639 146.09686255 480.76877639 145 482 C142.66666667 482.33333333 140.33333333 482.66666667 138 483 C137.67 483.33 137.34 483.66 137 484 C134.32941149 484.14115161 131.67567762 484.04247107 129 484 C129 484.66 129 485.32 129 486 C120.26609696 487.04530628 111.60179457 487.15452022 102.82080078 487.13037109 C100.50416522 487.12500964 98.18772347 487.13034765 95.87109375 487.13671875 C78.93289955 487.14532648 78.93289955 487.14532648 72 486 C71.67 485.67 71.34 485.34 71 485 C69.65252916 484.76924918 68.29622435 484.58846937 66.9375 484.4375 C65.638125 484.293125 64.33875 484.14875 63 484 C63 483.34 63 482.68 63 482 C61.948125 482.0928125 61.948125 482.0928125 60.875 482.1875 C57.34739788 481.95743899 55.06015649 480.70799432 52 479 C52 478.34 52 477.68 52 477 C51.2575 476.855625 50.515 476.71125 49.75 476.5625 C47.47972261 476.09812508 45.24240521 475.58136431 43 475 C43 474.34 43 473.68 43 473 C41.68 473 40.36 473 39 473 C39 472.34 39 471.68 39 471 C37.68 471 36.36 471 35 471 C35 470.34 35 469.68 35 469 C34.01 469 33.02 469 32 469 C32 468.34 32 467.68 32 467 C31.4225 466.87625 30.845 466.7525 30.25 466.625 C27.97664233 465.99351176 26.0746471 465.11141809 24 464 C24 463.34 24 462.68 24 462 C23.401875 461.855625 22.80375 461.71125 22.1875 461.5625 C20.43849596 461.1127561 18.71322977 460.57107659 17 460 C17 459.34 17 458.68 17 458 C16.38125 457.855625 15.7625 457.71125 15.125 457.5625 C13 457 13 457 11 456 C11 455.34 11 454.68 11 454 C10.484375 453.9175 9.96875 453.835 9.4375 453.75 C5.95544268 452.67859775 3.12799115 450.86476395 0 449 C0 448.34 0 447.68 0 447 C-1.32 447 -2.64 447 -4 447 C-4 446.34 -4 445.68 -4 445 C-4.68449219 444.89816406 -5.36898437 444.79632812 -6.07421875 444.69140625 C-9.58269626 443.86230008 -12.55755526 442.4827768 -15.8125 440.9375 C-16.97394531 440.38964844 -18.13539063 439.84179688 -19.33203125 439.27734375 C-20.65267578 438.64505859 -20.65267578 438.64505859 -22 438 C-22 437.34 -22 436.68 -22 436 C-23.98 436 -25.96 436 -28 436 C-28 435.34 -28 434.68 -28 434 C-29.4540625 434.0309375 -29.4540625 434.0309375 -30.9375 434.0625 C-34 434 -34 434 -35 433 C-36.32781878 432.79395915 -37.66295895 432.6337041 -39 432.5 C-42.88888889 432.11111111 -42.88888889 432.11111111 -44 431 C-45.92478813 430.84193469 -47.8549921 430.748865 -49.78515625 430.68359375 C-50.95498047 430.64169922 -52.12480469 430.59980469 -53.33007812 430.55664062 C-54.56177734 430.51732422 -55.79347656 430.47800781 -57.0625 430.4375 C-58.29806641 430.39431641 -59.53363281 430.35113281 -60.80664062 430.30664062 C-63.87097335 430.20015802 -66.93539073 430.09814576 -70 430 C-70 430.66 -70 431.32 -70 432 C-71.051875 432.144375 -72.10375 432.28875 -73.1875 432.4375 C-76.15460549 432.87526966 -79.06794366 433.37804866 -82 434 C-82 434.66 -82 435.32 -82 436 C-82.99 436 -83.98 436 -85 436 C-85 436.66 -85 437.32 -85 438 C-88.46153846 441 -88.46153846 441 -91 441 C-91 441.66 -91 442.32 -91 443 C-91.66 443 -92.32 443 -93 443 C-93 443.66 -93 444.32 -93 445 C-93.66 445 -94.32 445 -95 445 C-95 445.66 -95 446.32 -95 447 C-95.66 447 -96.32 447 -97 447 C-97.4021875 447.8353125 -97.4021875 447.8353125 -97.8125 448.6875 C-99.10899496 451.21225334 -100.42476323 453.63714484 -102 456 C-102.66 456 -103.32 456 -104 456 C-104 457.32 -104 458.64 -104 460 C-104.66 460 -105.32 460 -106 460 C-106.12375 460.56332031 -106.2475 461.12664062 -106.375 461.70703125 C-107.04485014 464.16454395 -107.95596862 466.36529784 -109 468.6875 C-109.350625 469.47511719 -109.70125 470.26273438 -110.0625 471.07421875 C-111 473 -111 473 -112 474 C-112.23075082 475.34747084 -112.41153063 476.70377565 -112.5625 478.0625 C-112.7790625 480.0115625 -112.7790625 480.0115625 -113 482 C-113.66 482 -114.32 482 -115 482 C-115 482.66 -115 483.32 -115 484 C-118.12498063 484.02895976 -121.2499269 484.04678483 -124.375 484.0625 C-125.26445312 484.07087891 -126.15390625 484.07925781 -127.0703125 484.08789062 C-128.34648437 484.09272461 -128.34648437 484.09272461 -129.6484375 484.09765625 C-130.82672119 484.10551147 -130.82672119 484.10551147 -132.02880859 484.11352539 C-134 484 -134 484 -136 483 C-136 481.68 -136 480.36 -136 479 C-136.66 479 -137.32 479 -138 479 C-138 356.24 -138 233.48 -138 107 C-137.34 107 -136.68 107 -136 107 C-136.02320313 106.34773438 -136.04640625 105.69546875 -136.0703125 105.0234375 C-136.17583753 99.91301097 -136.01926302 95.79574967 -134 91 C-133.34 91 -132.68 91 -132 91 C-132 89.68 -132 88.36 -132 87 C-131.34 87 -130.68 87 -130 87 C-129.814375 86.1028125 -129.814375 86.1028125 -129.625 85.1875 C-129 83 -129 83 -127 80 C-126.34 80 -125.68 80 -125 80 C-125 79.34 -125 78.68 -125 78 C-124.34 78 -123.68 78 -123 78 C-123 77.34 -123 76.68 -123 76 C-120 74 -120 74 -117 74 C-117 73.34 -117 72.68 -117 72 C-108.83680768 67.34040003 -101.10479096 63.52284279 -91.625 62.4375 C-88.1963063 62.40206859 -88.1963063 62.40206859 -87 61 C-84.69104731 60.78982984 -82.37726031 60.63160059 -80.0625 60.5 C-75.36692004 60.39353799 -75.36692004 60.39353799 -71 59 C-69.08628539 58.81951494 -67.16864673 58.67943245 -65.25 58.5625 C-60.81952476 58.23021436 -57.18463117 57.52168406 -53 56 C-51.02549354 55.77707185 -49.05084159 55.55487228 -47.07421875 55.3515625 C-44.85523439 54.97546346 -43.01406624 54.29704579 -40.9375 53.4375 C-37.102924 51.87329672 -34.11537458 51.74278909 -30 52 C-30 51.34 -30 50.68 -30 50 C-28.68 50 -27.36 50 -26 50 C-26 49.34 -26 48.68 -26 48 C-24.68 48 -23.36 48 -22 48 C-22 47.34 -22 46.68 -22 46 C-17.61538462 43 -17.61538462 43 -15 43 C-15 42.34 -15 41.68 -15 41 C-14.34 41 -13.68 41 -13 41 C-13 40.34 -13 39.68 -13 39 C-12.34 39 -11.68 39 -11 39 C-10.62875 37.7315625 -10.62875 37.7315625 -10.25 36.4375 C-9.28288315 33.77792866 -8.3837616 31.86135076 -6.9375 29.5 C-5.07192933 26.38609208 -4.35555376 23.64442608 -4 20 C-3.34 20 -2.68 20 -2 20 C-2 14.39 -2 8.78 -2 3 C-1.34 3 -0.68 3 0 3 C0 2.01 0 1.02 0 0 Z M36.9921875 126.40625 C35.82383271 127.97008429 35.82383271 127.97008429 36 130 C34.02 130.99 34.02 130.99 32 132 C32 132.66 32 133.32 32 134 C31.34 134 30.68 134 30 134 C30 135.32 30 136.64 30 138 C29.34 138 28.68 138 28 138 C27.34727468 140.64429651 26.70273172 143.29017506 26.0625 145.9375 C25.88009766 146.67291016 25.69769531 147.40832031 25.50976562 148.16601562 C25.33251953 148.90400391 25.15527344 149.64199219 24.97265625 150.40234375 C24.81031494 151.06741943 24.64797363 151.73249512 24.48071289 152.41772461 C23.12182288 159.71735878 22.85516272 166.96109847 22.87301636 174.36997986 C22.87145637 175.37672888 22.86989638 176.3834779 22.86828911 177.42073447 C22.86431952 180.773913 22.86745298 184.12704578 22.87060547 187.48022461 C22.8692497 189.89206977 22.86746877 192.30391472 22.86529541 194.71575928 C22.86121575 200.57264997 22.86180311 206.4295289 22.86470805 212.28641926 C22.86697005 217.04448385 22.86727116 221.80254485 22.86618423 226.56060982 C22.866031 227.23877647 22.86587777 227.91694312 22.86571989 228.61566027 C22.86540016 229.99342 22.86507595 231.37117973 22.8647473 232.74893946 C22.86189997 245.64852145 22.86516861 258.54809632 22.87054767 271.44767714 C22.87502212 282.52119261 22.87423306 293.59469761 22.86962891 304.66821289 C22.86428216 317.53373768 22.86216713 330.39925626 22.86524117 343.26478201 C22.86555972 344.63522152 22.86587409 346.00566103 22.86618423 347.37610054 C22.86633851 348.05037124 22.86649279 348.72464194 22.86665174 349.41934509 C22.86751606 354.17644029 22.86605597 358.93353155 22.86370468 363.69062614 C22.86061406 370.08378022 22.86280137 376.47691911 22.86859894 382.87007141 C22.86992623 385.22195973 22.86953294 387.57384971 22.86733627 389.92573738 C22.86462381 393.12348309 22.86800702 396.32116411 22.87301636 399.51890564 C22.87078564 400.46022321 22.86855491 401.40154078 22.86625659 402.37138313 C22.86886434 403.22324685 22.87147209 404.07511058 22.87415886 404.95278835 C22.87432121 405.69140211 22.87448356 406.43001586 22.87465084 407.19101185 C22.89060466 409.10147186 22.89060466 409.10147186 24 411 C24.66 411 25.32 411 26 411 C26 411.66 26 412.32 26 413 C26.66 413 27.32 413 28 413 C28.28875 413.598125 28.5775 414.19625 28.875 414.8125 C30.04742026 417.19327792 30.04742026 417.19327792 32 420 C32.66 420 33.32 420 34 420 C34 420.66 34 421.32 34 422 C34.66 422 35.32 422 36 422 C36 422.66 36 423.32 36 424 C37.65 424.66 39.3 425.32 41 426 C41 426.66 41 427.32 41 428 C41.66 428 42.32 428 43 428 C43 428.66 43 429.32 43 430 C43.66 430 44.32 430 45 430 C45 430.66 45 431.32 45 432 C47.13855366 433.82302781 47.13855366 433.82302781 49.8125 435.625 C51.15248047 436.57246094 51.15248047 436.57246094 52.51953125 437.5390625 C54.95103984 439.25374723 54.95103984 439.25374723 58 439 C58 439.66 58 440.32 58 441 C63.14011964 444.14269914 68.16742243 446.29317469 73.875 448.1875 C81.88729508 450.88729508 81.88729508 450.88729508 83 452 C84.85287502 452.07226502 86.70833878 452.0838122 88.5625 452.0625 C90.08037109 452.04896484 90.08037109 452.04896484 91.62890625 452.03515625 C92.41136719 452.02355469 93.19382812 452.01195312 94 452 C94 452.66 94 453.32 94 454 C95.81242052 454.02687279 97.62495233 454.04633715 99.4375 454.0625 C100.95150391 454.07990234 100.95150391 454.07990234 102.49609375 454.09765625 C104.94021067 454.28612676 104.94021067 454.28612676 106 453 C107.84891946 452.76636119 109.70488031 452.58696365 111.5625 452.4375 C113.08037109 452.31181641 113.08037109 452.31181641 114.62890625 452.18359375 C115.41136719 452.12300781 116.19382812 452.06242187 117 452 C117 451.34 117 450.68 117 450 C117.886875 449.896875 118.77375 449.79375 119.6875 449.6875 C123.0934675 448.98060109 125.09073815 447.83742853 128 446 C130.3125 445.3125 130.3125 445.3125 132 445 C132 444.34 132 443.68 132 443 C132.66 443 133.32 443 134 443 C134 442.34 134 441.68 134 441 C134.66 441 135.32 441 136 441 C136 440.34 136 439.68 136 439 C137.32 438.34 138.64 437.68 140 437 C140 436.34 140 435.68 140 435 C140.66 435 141.32 435 142 435 C145.1754706 432.61839705 145.92577836 429.71845952 147 426 C147.66 426 148.32 426 149 426 C152.40762944 417.77868043 154.93339005 409.80244453 156.53515625 401.0390625 C157 399 157 399 158 398 C158.10427768 396.19091374 158.1385433 394.37775048 158.14526367 392.56567383 C158.15164352 391.40389114 158.15802338 390.24210846 158.16459656 389.04512024 C158.16570938 387.77855087 158.1668222 386.51198151 158.16796875 385.20703125 C158.17129715 383.91310959 158.17462555 382.61918793 158.17805481 381.28605652 C158.18405484 378.53957283 158.18589401 375.79312064 158.18530273 373.04663086 C158.1852015 369.53730661 158.19880976 366.02818644 158.21607494 362.51891041 C158.22991817 359.16494782 158.22928536 355.81102202 158.23046875 352.45703125 C158.24124702 350.57235893 158.24124702 350.57235893 158.25224304 348.64961243 C158.24916641 347.47206894 158.24608978 346.29452545 158.24291992 345.08129883 C158.24434494 344.04951004 158.24576996 343.01772125 158.24723816 341.95466614 C157.97550468 338.70726407 157.08980061 336.06038858 156 333 C155.74723102 330.73550268 155.5597151 328.46278103 155.4375 326.1875 C155.5605172 322.27535734 155.5605172 322.27535734 154 319 C153.67648699 316.16027465 153.4869571 313.31926263 153.28125 310.46875 C153.26614735 308.0586395 153.26614735 308.0586395 152 307 C151.67902249 304.68182911 151.48779044 302.36220643 151.28125 300.03125 C151.20934163 298.00819407 151.20934163 298.00819407 150 297 C149.67762788 294.42102306 149.48732696 291.84068179 149.28125 289.25 C149.23799335 287.03334648 149.23799335 287.03334648 148 286 C147.76712992 284.31816052 147.58735834 282.6287584 147.4375 280.9375 C147.35371094 280.01839844 147.26992188 279.09929687 147.18359375 278.15234375 C147.12300781 277.44207031 147.06242187 276.73179687 147 276 C146.34 276 145.68 276 145 276 C145.06510417 274.01432292 145.13020833 272.02864583 145.1953125 270.04296875 C145.13254462 267.68640281 145.13254462 267.68640281 143 265 C142.46471592 262.9513473 141.99270855 260.88576495 141.5625 258.8125 C140.58798142 254.37574707 139.45784155 250.28495623 137.74609375 246.08984375 C136.79799178 243.43416544 136.19693791 240.74694469 135.5625 238 C134.3267583 232.82165384 132.50627426 228.67837862 130 224 C129.63167779 222.67590497 129.28877508 221.34368815 129 220 C128.34 220 127.68 220 127 220 C127.04125 219.278125 127.0825 218.55625 127.125 217.8125 C126.99078695 214.79270631 126.24829381 212.73064271 125 210 C124.34 210 123.68 210 123 210 C123 208.35 123 206.7 123 205 C122.34 205 121.68 205 121 205 C121 203.68 121 202.36 121 201 C120.34 201 119.68 201 119 201 C119 199.68 119 198.36 119 197 C118.34 197 117.68 197 117 197 C116.67 195.35 116.34 193.7 116 192 C115.34 192 114.68 192 114 192 C114 190.68 114 189.36 114 188 C113.34 188 112.68 188 112 188 C111.855625 187.401875 111.71125 186.80375 111.5625 186.1875 C111.1127561 184.43849596 110.57107659 182.71322977 110 181 C109.34 181 108.68 181 108 181 C108 179.68 108 178.36 108 177 C107.34 177 106.68 177 106 177 C106 176.34 106 175.68 106 175 C105.34 175 104.68 175 104 175 C104 173.68 104 172.36 104 171 C102.62514468 169.45833358 102.62514468 169.45833358 101 168 C99.8125 165.8125 99.8125 165.8125 99 164 C98.34 164 97.68 164 97 164 C97 163.34 97 162.68 97 162 C96.34 162 95.68 162 95 162 C94.7834375 161.071875 94.7834375 161.071875 94.5625 160.125 C94.06847775 157.96741678 94.06847775 157.96741678 93 156 C92.34 156 91.68 156 91 156 C91 155.01 91 154.02 91 153 C89.37897032 151.28891311 87.70496537 149.62746694 86 148 C85.278125 147.071875 84.55625 146.14375 83.8125 145.1875 C83.214375 144.465625 82.61625 143.74375 82 143 C81.34 143 80.68 143 80 143 C80 142.34 80 141.68 80 141 C79.34 141 78.68 141 78 141 C78 140.01 78 139.02 78 138 C76.68 138 75.36 138 74 138 C74 137.34 74 136.68 74 136 C73.01 136 72.02 136 71 136 C71 135.34 71 134.68 71 134 C70.34 134 69.68 134 69 134 C69 133.34 69 132.68 69 132 C67.68 132 66.36 132 65 132 C65 131.34 65 130.68 65 130 C59.34708817 125.49055467 54.16078834 124.50595307 47.125 124.5 C46.37549072 124.49419922 45.62598145 124.48839844 44.85375977 124.48242188 C41.77739204 124.55201508 39.55524457 124.61111275 36.9921875 126.40625 Z " fill="#FCFCFC" transform="translate(470,245)"/>
<path d="M0 0 C2.64511767 1.20232621 4.1913849 2.73225721 6.0625 4.9375 C6.0625 5.5975 6.0625 6.2575 6.0625 6.9375 C6.7225 6.9375 7.3825 6.9375 8.0625 6.9375 C8.0625 7.5975 8.0625 8.2575 8.0625 8.9375 C8.908125 9.185 9.75375 9.4325 10.625 9.6875 C14.44677474 11.07723627 17.58118063 12.84870838 21.0625 14.9375 C21.0625 15.5975 21.0625 16.2575 21.0625 16.9375 C21.59875 17.040625 22.135 17.14375 22.6875 17.25 C25.0625 17.9375 25.0625 17.9375 28 19.4375 C30.7797827 20.79902622 33.02410412 21.49067708 36.0625 21.9375 C36.0625 22.5975 36.0625 23.2575 36.0625 23.9375 C38.0425 23.9375 40.0225 23.9375 42.0625 23.9375 C42.0625 24.5975 42.0625 25.2575 42.0625 25.9375 C43.7640625 25.9065625 43.7640625 25.9065625 45.5 25.875 C49.0625 25.9375 49.0625 25.9375 50.0625 26.9375 C52.91481224 27.4569117 55.76057543 27.93274918 58.625 28.375 C64.53871393 29.29039061 70.26646847 30.44673842 76.0625 31.9375 C78.39268652 32.33464338 80.71609772 32.64419972 83.0625 32.9375 C83.0625 33.5975 83.0625 34.2575 83.0625 34.9375 C84.66931641 34.92009766 84.66931641 34.92009766 86.30859375 34.90234375 C87.70572743 34.89296701 89.10286299 34.88386669 90.5 34.875 C91.20705078 34.86662109 91.91410156 34.85824219 92.64257812 34.84960938 C94.44943559 34.84096412 96.25637603 34.88529989 98.0625 34.9375 C98.3925 35.2675 98.7225 35.5975 99.0625 35.9375 C100.89156235 36.14587419 102.72638134 36.30499659 104.5625 36.4375 C109.95138889 36.82638889 109.95138889 36.82638889 111.0625 37.9375 C112.031875 38.040625 113.00125 38.14375 114 38.25 C120.60881483 39.10846461 127.69490393 42.00126288 133.0625 45.9375 C133.0625 46.5975 133.0625 47.2575 133.0625 47.9375 C133.84625 48.081875 134.63 48.22625 135.4375 48.375 C138.0625 48.9375 138.0625 48.9375 140.0625 49.9375 C140.0625 50.5975 140.0625 51.2575 140.0625 51.9375 C140.7225 51.9375 141.3825 51.9375 142.0625 51.9375 C142.0625 52.5975 142.0625 53.2575 142.0625 53.9375 C142.7225 53.9375 143.3825 53.9375 144.0625 53.9375 C144.0625 54.5975 144.0625 55.2575 144.0625 55.9375 C144.7225 55.9375 145.3825 55.9375 146.0625 55.9375 C146.0625 56.9275 146.0625 57.9175 146.0625 58.9375 C146.7225 58.9375 147.3825 58.9375 148.0625 58.9375 C148.3925 60.2575 148.7225 61.5775 149.0625 62.9375 C149.7225 62.9375 150.3825 62.9375 151.0625 62.9375 C152.92026765 66.07248292 153.26390476 68.31221432 153.0625 71.9375 C153.7225 71.9375 154.3825 71.9375 155.0625 71.9375 C155.12308594 73.08089844 155.18367187 74.22429687 155.24609375 75.40234375 C155.33048428 76.89324305 155.41513302 78.38412775 155.5 79.875 C155.53931641 80.62974609 155.57863281 81.38449219 155.61914062 82.16210938 C155.50288024 85.85694187 155.50288024 85.85694187 157.0625 88.9375 C157.16057059 92.08514224 157.19240313 95.21086069 157.18275452 98.35890198 C157.18403615 99.86088911 157.18403615 99.86088911 157.18534368 101.39321941 C157.18700151 104.77591727 157.18147218 108.15856642 157.17602539 111.54125977 C157.17574356 113.95516967 157.17590118 116.36907965 157.1764679 118.7829895 C157.17669621 123.99407492 157.17384487 129.20514915 157.16823006 134.41623116 C157.16011716 141.9506629 157.15750005 149.48508857 157.15624207 157.01952421 C157.15405121 169.24243037 157.14739023 181.46532988 157.13793945 193.68823242 C157.12876619 205.56453417 157.12168494 217.4408341 157.11743164 229.31713867 C157.11716892 230.04868986 157.11690619 230.78024106 157.11663551 231.53396047 C157.11533051 235.20378728 157.11406679 238.87361411 157.11282361 242.54344094 C157.10244996 273.00813206 157.08475663 303.47281511 157.0625 333.9375 C156.4025 333.9375 155.7425 333.9375 155.0625 333.9375 C154.7325 334.9275 154.4025 335.9175 154.0625 336.9375 C102.5825 336.9375 51.1025 336.9375 -1.9375 336.9375 C-1.9375 336.2775 -1.9375 335.6175 -1.9375 334.9375 C-2.5975 334.9375 -3.2575 334.9375 -3.9375 334.9375 C-5.23667813 332.33914375 -5.06529922 330.45726577 -5.06892776 327.54605198 C-5.07468948 325.81857317 -5.07468948 325.81857317 -5.0805676 324.0561958 C-5.07970112 322.7800549 -5.07883463 321.503914 -5.07794189 320.18910217 C-5.08052416 318.82832916 -5.08353692 317.46755691 -5.0869453 316.10678571 C-5.09503472 312.3545731 -5.09680594 308.60237959 -5.09754276 304.85015929 C-5.09938992 300.8085126 -5.10693547 296.76687591 -5.11367798 292.72523499 C-5.12727494 283.88246016 -5.13328795 275.03968987 -5.13768864 266.19690633 C-5.14044839 260.67943618 -5.14468521 255.16196779 -5.14919281 249.64449883 C-5.16138655 234.37923448 -5.17168612 219.11397154 -5.1750679 203.84870243 C-5.17528747 202.87121565 -5.17550703 201.89372886 -5.17573325 200.88662126 C-5.17595153 199.906751 -5.17616981 198.92688075 -5.1763947 197.91731745 C-5.17683817 195.93161333 -5.17728474 193.9459092 -5.17773438 191.96020508 C-5.1779558 190.97522014 -5.17817723 189.9902352 -5.17840537 188.97540223 C-5.18235573 173.00521467 -5.1998165 157.03507268 -5.2230939 141.06490273 C-5.24677942 124.68303333 -5.25926845 108.30118683 -5.26043582 91.91930002 C-5.26135409 82.71557951 -5.26714447 73.51191839 -5.28525543 64.30821419 C-5.30061861 56.47310316 -5.30579931 48.63806985 -5.29751733 40.80294663 C-5.29359752 36.80260112 -5.29460483 32.80241233 -5.30857468 28.80208588 C-5.3212343 25.14363044 -5.3201868 21.48545076 -5.30798396 17.82699614 C-5.30507578 15.86883577 -5.31702255 13.91067098 -5.32940602 11.95254761 C-5.32281618 10.79828732 -5.31622633 9.64402703 -5.3094368 8.45478916 C-5.31003389 7.4545508 -5.31063097 6.45431243 -5.31124616 5.42376381 C-4.9375 2.9375 -4.9375 2.9375 -3.5353477 1.08876318 C-1.9375 -0.0625 -1.9375 -0.0625 0 0 Z " fill="#FBFBFB" transform="translate(143.9375,392.0625)"/>
<path d="M0 0 C0.495 0.495 0.495 0.495 1 1 C2.010625 1.12375 3.02125 1.2475 4.0625 1.375 C10.45391759 2.38951073 15.50108932 4.63955458 21 8 C23.19130534 8.69579454 23.19130534 8.69579454 25 9 C25 9.66 25 10.32 25 11 C26.32 11 27.64 11 29 11 C29 11.66 29 12.32 29 13 C30.98 13.66 32.96 14.32 35 15 C35 15.66 35 16.32 35 17 C35.99 17 36.98 17 38 17 C38 17.66 38 18.32 38 19 C38.66 19 39.32 19 40 19 C40 19.66 40 20.32 40 21 C40.556875 21.226875 41.11375 21.45375 41.6875 21.6875 C44.66159588 23.37550036 46.72008865 25.46676517 49 28 C49 28.66 49 29.32 49 30 C49.66 30 50.32 30 51 30 C51 30.66 51 31.32 51 32 C51.66 32 52.32 32 53 32 C53 32.99 53 33.98 53 35 C53.66 35 54.32 35 55 35 C55.99 37.97 55.99 37.97 57 41 C57.66 41 58.32 41 59 41 C59 42.32 59 43.64 59 45 C59.66 45 60.32 45 61 45 C63.87584224 49.93001528 65.08237833 54.94071816 66.3515625 60.48828125 C66.75320413 62.92250546 66.75320413 62.92250546 68 64 C68.32526705 67.36109285 68.5135946 70.7233399 68.71875 74.09375 C68.6785989 76.89050132 68.6785989 76.89050132 70 78 C70.09860131 79.40348735 70.13078937 80.81180477 70.1328125 82.21875 C70.13410156 83.06824219 70.13539063 83.91773438 70.13671875 84.79296875 C70.13285156 85.68628906 70.12898437 86.57960938 70.125 87.5 C70.12886719 88.39332031 70.13273438 89.28664063 70.13671875 90.20703125 C70.13478516 91.48126953 70.13478516 91.48126953 70.1328125 92.78125 C70.13168457 93.56564453 70.13055664 94.35003906 70.12939453 95.15820312 C70 97 70 97 69 98 C68.81422064 99.70445187 68.67670464 101.41426114 68.5625 103.125 C68.19351981 107.68964198 67.44506655 111.66480036 66 116 C65.34 116 64.68 116 64 116 C64.061875 116.70125 64.12375 117.4025 64.1875 118.125 C63.95743899 121.65260212 62.70799432 123.93984351 61 127 C60.34 127 59.68 127 59 127 C58.855625 127.598125 58.71125 128.19625 58.5625 128.8125 C58.1127561 130.56150404 57.57107659 132.28677023 57 134 C56.34 134 55.68 134 55 134 C54.855625 134.61875 54.71125 135.2375 54.5625 135.875 C54 138 54 138 53 140 C52.34 140 51.68 140 51 140 C51 140.66 51 141.32 51 142 C50.34 142 49.68 142 49 142 C48.67 142.99 48.34 143.98 48 145 C47.34 145 46.68 145 46 145 C46 145.66 46 146.32 46 147 C45.34 147 44.68 147 44 147 C44 147.66 44 148.32 44 149 C43.34 149 42.68 149 42 149 C42 149.66 42 150.32 42 151 C41.34 151 40.68 151 40 151 C40 151.66 40 152.32 40 153 C39.34 153 38.68 153 38 153 C38 153.66 38 154.32 38 155 C37.01 155 36.02 155 35 155 C35 155.66 35 156.32 35 157 C33.68 157 32.36 157 31 157 C31 157.99 31 158.98 31 160 C20.19791667 166.35416667 20.19791667 166.35416667 14 166 C14 166.66 14 167.32 14 168 C11.69 168 9.38 168 7 168 C7 168.66 7 169.32 7 170 C5.7625 170.12375 4.525 170.2475 3.25 170.375 C0.94795856 170.60520414 -0.62841916 170.76457265 -2.59643555 172.01147461 C-6.19078108 173.4897382 -9.77291783 173.26477295 -13.59765625 173.23046875 C-14.42833115 173.23001053 -15.25900604 173.22955231 -16.11485291 173.2290802 C-17.86735466 173.22606441 -19.61985389 173.21819827 -21.37231445 173.20581055 C-24.05624879 173.18754255 -26.73983806 173.18530107 -29.42382812 173.18554688 C-31.12760715 173.18063171 -32.83138384 173.1748034 -34.53515625 173.16796875 C-35.73991356 173.16629951 -35.73991356 173.16629951 -36.9690094 173.16459656 C-40.23204173 173.13675247 -42.88301479 173.03899507 -46 172 C-46 171.34 -46 170.68 -46 170 C-47.175625 170.04125 -48.35125 170.0825 -49.5625 170.125 C-53.72409674 170.13983635 -57.06487667 169.31170778 -61 168 C-61 167.34 -61 166.68 -61 166 C-62.31291016 166.08701172 -62.31291016 166.08701172 -63.65234375 166.17578125 C-67.42429872 165.9777206 -69.3263259 165.07948799 -72.5625 163.1875 C-73.92568359 162.40439453 -73.92568359 162.40439453 -75.31640625 161.60546875 C-76.20199219 161.07566406 -77.08757812 160.54585937 -78 160 C-78.93714844 159.48050781 -79.87429687 158.96101562 -80.83984375 158.42578125 C-81.55269531 157.95527344 -82.26554687 157.48476563 -83 157 C-83 156.34 -83 155.68 -83 155 C-83.66 155 -84.32 155 -85 155 C-85 154.34 -85 153.68 -85 153 C-86.65 152.34 -88.3 151.68 -90 151 C-90 150.34 -90 149.68 -90 149 C-90.66 149 -91.32 149 -92 149 C-92 148.34 -92 147.68 -92 147 C-92.66 147 -93.32 147 -94 147 C-94 146.34 -94 145.68 -94 145 C-94.66 145 -95.32 145 -96 145 C-96.99 142.525 -96.99 142.525 -98 140 C-98.66 140 -99.32 140 -100 140 C-100 139.34 -100 138.68 -100 138 C-100.66 138 -101.32 138 -102 138 C-105 133.61538462 -105 133.61538462 -105 131 C-105.66 131 -106.32 131 -107 131 C-107 129.68 -107 128.36 -107 127 C-107.66 127 -108.32 127 -109 127 C-109.18175781 126.35933594 -109.36351562 125.71867187 -109.55078125 125.05859375 C-110.70948565 121.0714622 -111.8461846 117.32537874 -113.625 113.5625 C-115.23323431 109.3957111 -115.53550428 105.68904422 -115.7890625 101.2578125 C-115.75468067 99.03256418 -115.75468067 99.03256418 -117 98 C-117.09959621 96.15840977 -117.13080411 94.31303033 -117.1328125 92.46875 C-117.13410156 91.34855469 -117.13539062 90.22835937 -117.13671875 89.07421875 C-117.13285156 87.89472656 -117.12898438 86.71523438 -117.125 85.5 C-117.12886719 84.32050781 -117.13273437 83.14101563 -117.13671875 81.92578125 C-117.13542969 80.80558594 -117.13414063 79.68539062 -117.1328125 78.53125 C-117.13168457 77.49548828 -117.13055664 76.45972656 -117.12939453 75.39257812 C-117 73 -117 73 -116 72 C-115.84025503 70.4824228 -115.72264738 68.96033421 -115.625 67.4375 C-115.18326046 62.45724296 -113.90590288 58.60593196 -112 54 C-111.64587656 52.67203709 -111.30688435 51.3396682 -111 50 C-110.34 50 -109.68 50 -109 50 C-109.061875 48.88625 -109.061875 48.88625 -109.125 47.75 C-108.99601866 44.91241048 -108.42948778 43.41226062 -107 41 C-106.34 41 -105.68 41 -105 41 C-104.67 39.68 -104.34 38.36 -104 37 C-103.34 37 -102.68 37 -102 37 C-101.62875 35.948125 -101.62875 35.948125 -101.25 34.875 C-99.82819762 31.60485452 -98.12753712 28.858878 -96 26 C-95.34 26 -94.68 26 -94 26 C-94 25.34 -94 24.68 -94 24 C-92.5390625 22.7109375 -92.5390625 22.7109375 -90.625 21.375 C-89.99851563 20.92898438 -89.37203125 20.48296875 -88.7265625 20.0234375 C-87 19 -87 19 -85 19 C-85 18.34 -85 17.68 -85 17 C-84.34 17 -83.68 17 -83 17 C-83 16.34 -83 15.68 -83 15 C-80.35261084 13.5393715 -79.10551666 13 -76 13 C-76 12.34 -76 11.68 -76 11 C-74.68 11 -73.36 11 -72 11 C-72 10.34 -72 9.68 -72 9 C-70.68 9 -69.36 9 -68 9 C-68 8.34 -68 7.68 -68 7 C-66.35 6.67 -64.7 6.34 -63 6 C-63 5.34 -63 4.68 -63 4 C-59.18696108 2.80842534 -55.59900541 1.88224429 -51.625 1.4375 C-48.1963063 1.40206859 -48.1963063 1.40206859 -47 0 C-31.58263801 -1.75394146 -15.41736199 -1.75394146 0 0 Z " fill="#FCFCFC" transform="translate(244,241)"/>
<path d="M0 0 C1.27875 0.00257813 2.5575 0.00515625 3.875 0.0078125 C5.15375 0.00523437 6.4325 0.00265625 7.75 0 C10.875 0.1328125 10.875 0.1328125 11.875 1.1328125 C14.71207088 1.3438343 17.53397646 1.50889063 20.375 1.6328125 C28.73986486 1.99767736 28.73986486 1.99767736 29.875 3.1328125 C31.22247084 3.36356332 32.57877565 3.54434313 33.9375 3.6953125 C35.236875 3.8396875 36.53625 3.9840625 37.875 4.1328125 C37.875 4.7928125 37.875 5.4528125 37.875 6.1328125 C39.2053125 6.0709375 39.2053125 6.0709375 40.5625 6.0078125 C43.84777013 6.13178496 45.92949295 6.74669154 48.875 8.1328125 C48.875 8.7928125 48.875 9.4528125 48.875 10.1328125 C49.390625 10.2153125 49.90625 10.2978125 50.4375 10.3828125 C53.91955732 11.45421475 56.74700885 13.26804855 59.875 15.1328125 C59.875 15.7928125 59.875 16.4528125 59.875 17.1328125 C61.855 17.7928125 63.835 18.4528125 65.875 19.1328125 C65.875 19.7928125 65.875 20.4528125 65.875 21.1328125 C66.865 21.1328125 67.855 21.1328125 68.875 21.1328125 C68.875 21.7928125 68.875 22.4528125 68.875 23.1328125 C69.535 23.1328125 70.195 23.1328125 70.875 23.1328125 C70.875 23.7928125 70.875 24.4528125 70.875 25.1328125 C71.535 25.1328125 72.195 25.1328125 72.875 25.1328125 C72.875 25.7928125 72.875 26.4528125 72.875 27.1328125 C73.535 27.1328125 74.195 27.1328125 74.875 27.1328125 C74.875 28.1228125 74.875 29.1128125 74.875 30.1328125 C75.535 30.1328125 76.195 30.1328125 76.875 30.1328125 C76.875 30.7928125 76.875 31.4528125 76.875 32.1328125 C77.535 32.1328125 78.195 32.1328125 78.875 32.1328125 C78.875 32.7928125 78.875 33.4528125 78.875 34.1328125 C79.865 34.4628125 80.855 34.7928125 81.875 35.1328125 C83.875 38.1328125 83.875 38.1328125 83.875 41.1328125 C84.535 41.1328125 85.195 41.1328125 85.875 41.1328125 C89.875 47.6328125 89.875 47.6328125 89.875 52.1328125 C90.535 52.1328125 91.195 52.1328125 91.875 52.1328125 C91.875 54.1128125 91.875 56.0928125 91.875 58.1328125 C92.535 58.1328125 93.195 58.1328125 93.875 58.1328125 C94.00777344 58.77089844 94.14054688 59.40898438 94.27734375 60.06640625 C94.45394531 60.89269531 94.63054687 61.71898437 94.8125 62.5703125 C94.98652344 63.39402344 95.16054688 64.21773437 95.33984375 65.06640625 C95.68252994 67.10942454 95.68252994 67.10942454 96.875 68.1328125 C98.5920687 83.43291805 99.89015639 101.67802343 93.875 116.1328125 C93.483125 117.3084375 93.09125 118.4840625 92.6875 119.6953125 C92.2853125 120.901875 92.2853125 120.901875 91.875 122.1328125 C91.215 122.1328125 90.555 122.1328125 89.875 122.1328125 C89.7203125 123.1846875 89.7203125 123.1846875 89.5625 124.2578125 C88.78140997 127.52418897 87.45441257 130.1799977 85.875 133.1328125 C85.215 133.1328125 84.555 133.1328125 83.875 133.1328125 C83.875 134.4528125 83.875 135.7728125 83.875 137.1328125 C83.215 137.1328125 82.555 137.1328125 81.875 137.1328125 C81.606875 137.7721875 81.33875 138.4115625 81.0625 139.0703125 C79.875 141.1328125 79.875 141.1328125 76.875 142.1328125 C76.75125 142.7103125 76.6275 143.2878125 76.5 143.8828125 C75.56632769 147.24403282 73.44725386 148.87424813 70.875 151.1328125 C70.215 151.1328125 69.555 151.1328125 68.875 151.1328125 C68.875 151.7928125 68.875 152.4528125 68.875 153.1328125 C66.4 154.1228125 66.4 154.1228125 63.875 155.1328125 C63.875 155.7928125 63.875 156.4528125 63.875 157.1328125 C60.905 158.1228125 60.905 158.1228125 57.875 159.1328125 C57.875 159.7928125 57.875 160.4528125 57.875 161.1328125 C54.50402617 162.63102309 52.67057881 163.1328125 48.875 163.1328125 C48.545 164.1228125 48.215 165.1128125 47.875 166.1328125 C35.34271709 173.68983288 20.51713566 173.30798417 6.38427734 173.26318359 C4.37720187 173.25781839 2.37035006 173.26316893 0.36328125 173.26953125 C-22.01036777 173.24744473 -22.01036777 173.24744473 -24.125 171.1328125 C-25.094375 171.0503125 -26.06375 170.9678125 -27.0625 170.8828125 C-32.24722833 170.24552298 -36.59929666 167.60055014 -41.125 165.1328125 C-41.125 164.4728125 -41.125 163.8128125 -41.125 163.1328125 C-42.176875 162.978125 -42.176875 162.978125 -43.25 162.8203125 C-46.51637647 162.03922247 -49.1721852 160.71222507 -52.125 159.1328125 C-52.125 158.4728125 -52.125 157.8128125 -52.125 157.1328125 C-53.445 157.1328125 -54.765 157.1328125 -56.125 157.1328125 C-56.125 156.4728125 -56.125 155.8128125 -56.125 155.1328125 C-56.723125 154.8646875 -57.32125 154.5965625 -57.9375 154.3203125 C-60.12347854 153.13363844 -61.53832594 152.03682137 -63.125 150.1328125 C-63.125 149.4728125 -63.125 148.8128125 -63.125 148.1328125 C-63.785 148.1328125 -64.445 148.1328125 -65.125 148.1328125 C-65.125 147.4728125 -65.125 146.8128125 -65.125 146.1328125 C-65.785 146.1328125 -66.445 146.1328125 -67.125 146.1328125 C-67.125 145.4728125 -67.125 144.8128125 -67.125 144.1328125 C-67.785 144.1328125 -68.445 144.1328125 -69.125 144.1328125 C-69.125 143.4728125 -69.125 142.8128125 -69.125 142.1328125 C-70.0221875 141.7925 -70.0221875 141.7925 -70.9375 141.4453125 C-73.71848403 139.77672208 -74.6891916 138.0044293 -76.125 135.1328125 C-76.125 134.4728125 -76.125 133.8128125 -76.125 133.1328125 C-76.785 133.1328125 -77.445 133.1328125 -78.125 133.1328125 C-78.125 131.8128125 -78.125 130.4928125 -78.125 129.1328125 C-78.785 129.1328125 -79.445 129.1328125 -80.125 129.1328125 C-81.62321059 125.76183867 -82.125 123.92839131 -82.125 120.1328125 C-82.785 120.1328125 -83.445 120.1328125 -84.125 120.1328125 C-88.94165766 109.84268022 -89.42128165 100.15853994 -89.33081055 88.98242188 C-89.31232666 86.61056994 -89.31030285 84.2391046 -89.31054688 81.8671875 C-89.30563892 80.36197576 -89.29981379 78.85676667 -89.29296875 77.3515625 C-89.29185593 76.64124878 -89.2907431 75.93093506 -89.28959656 75.19909668 C-89.24112787 70.24894037 -89.24112787 70.24894037 -88.125 69.1328125 C-87.77739293 67.74530529 -87.47163367 66.34719516 -87.1875 64.9453125 C-86.40002633 61.23885749 -85.40716023 57.70454458 -84.125 54.1328125 C-83.465 54.1328125 -82.805 54.1328125 -82.125 54.1328125 C-82.125 52.4828125 -82.125 50.8328125 -82.125 49.1328125 C-81.465 49.1328125 -80.805 49.1328125 -80.125 49.1328125 C-80.125 47.8128125 -80.125 46.4928125 -80.125 45.1328125 C-79.465 45.1328125 -78.805 45.1328125 -78.125 45.1328125 C-78.02058594 44.57078125 -77.91617188 44.00875 -77.80859375 43.4296875 C-76.99886765 40.70900779 -75.76296662 38.74023443 -74.1875 36.3828125 C-73.66285156 35.58359375 -73.13820313 34.784375 -72.59765625 33.9609375 C-72.11167969 33.35765625 -71.62570312 32.754375 -71.125 32.1328125 C-70.465 32.1328125 -69.805 32.1328125 -69.125 32.1328125 C-69.125 31.4728125 -69.125 30.8128125 -69.125 30.1328125 C-68.465 30.1328125 -67.805 30.1328125 -67.125 30.1328125 C-66.465 28.4828125 -65.805 26.8328125 -65.125 25.1328125 C-64.465 25.1328125 -63.805 25.1328125 -63.125 25.1328125 C-63.125 24.4728125 -63.125 23.8128125 -63.125 23.1328125 C-56.375 19.1328125 -56.375 19.1328125 -54.125 19.1328125 C-54.125 18.4728125 -54.125 17.8128125 -54.125 17.1328125 C-53.465 17.1328125 -52.805 17.1328125 -52.125 17.1328125 C-52.125 16.4728125 -52.125 15.8128125 -52.125 15.1328125 C-50.805 15.1328125 -49.485 15.1328125 -48.125 15.1328125 C-47.795 14.1428125 -47.465 13.1528125 -47.125 12.1328125 C-45.805 12.1328125 -44.485 12.1328125 -43.125 12.1328125 C-43.125 11.4728125 -43.125 10.8128125 -43.125 10.1328125 C-36.93228979 6.54104058 -31.02598081 5.07902201 -24.00390625 3.74609375 C-21.24136568 3.43059902 -21.24136568 3.43059902 -20.125 2.1328125 C-16.70029995 1.86244144 -13.28260696 1.68651592 -9.8515625 1.52734375 C-6.17145166 1.33470257 -3.44993646 0.1466223 0 0 Z " fill="#FCFCFC" transform="translate(846.125,558.8671875)"/>
<path d="M0 0 C49.17 0 98.34 0 149 0 C148.67 0.99 148.34 1.98 148 3 C140.91538253 4.09776259 133.95454822 4.14123425 126.79443359 4.12939453 C125.48617111 4.13114685 124.17790863 4.13289917 122.83000183 4.13470459 C119.26199515 4.1392402 115.69401757 4.1375056 112.12601042 4.1343255 C108.38255965 4.13178289 104.63911127 4.13414463 100.8956604 4.13571167 C94.61305293 4.13752737 88.33045724 4.13514231 82.04785156 4.13037109 C74.79282291 4.12492489 67.53782234 4.12669615 60.28279436 4.1321975 C54.04139954 4.13674004 47.80001317 4.13737372 41.55861723 4.13475883 C37.83617608 4.13320296 34.11374812 4.13298348 30.39130783 4.13629532 C26.24311415 4.1397287 22.0949687 4.13496565 17.94677734 4.12939453 C16.10446281 4.13243088 16.10446281 4.13243088 14.22492981 4.13552856 C12.52603355 4.13129883 12.52603355 4.13129883 10.79281616 4.12698364 C9.32339349 4.1264181 9.32339349 4.1264181 7.82428551 4.12584114 C4.81682959 3.99183851 1.95707393 3.55159073 -1 3 C-0.67 2.01 -0.34 1.02 0 0 Z " fill="#E3E3E3" transform="translate(145,724)"/>
<path d="M0 0 C0.66 0.33 1.32 0.66 2 1 C1.67 4.3 1.34 7.6 1 11 C0.34 11 -0.32 11 -1 11 C-1 11.66 -1 12.32 -1 13 C-4.96 12.67 -8.92 12.34 -13 12 C-13.33 11.01 -13.66 10.02 -14 9 C-14.99 8.34 -15.98 7.68 -17 7 C-9.08 6.505 -9.08 6.505 -1 6 C-1 4.35 -1 2.7 -1 1 C-0.67 0.67 -0.34 0.34 0 0 Z " fill="#EFEFEF" transform="translate(356,716)"/>
<path d="M0 0 C2.97 0 5.94 0 9 0 C9 1.65 9 3.3 9 5 C6.03 4.67 3.06 4.34 0 4 C0 2.68 0 1.36 0 0 Z " fill="#DDDDDD" transform="translate(343,724)"/>
<path d="M0 0 C1.9375 0.8125 1.9375 0.8125 4 2 C4.33 2.99 4.66 3.98 5 5 C5.66 5 6.32 5 7 5 C7 5.66 7 6.32 7 7 C6.01 7 5.02 7 4 7 C4 6.34 4 5.68 4 5 C3.34 5 2.68 5 2 5 C2 4.34 2 3.68 2 3 C1.34 3 0.68 3 0 3 C0 2.01 0 1.02 0 0 Z " fill="#7F7F7F" transform="translate(497,660)"/>
<path d="M0 0 C0.99 0.33 1.98 0.66 3 1 C3 2.32 3 3.64 3 5 C1.35 5 -0.3 5 -2 5 C-1.34 3.35 -0.68 1.7 0 0 Z " fill="#F6F6F6" transform="translate(385,676)"/>
<path d="M0 0 C1.32 0 2.64 0 4 0 C4 0.66 4 1.32 4 2 C3.34 2 2.68 2 2 2 C1.71125 2.639375 1.4225 3.27875 1.125 3.9375 C0 6 0 6 -2 7 C-1.42415568 4.61435923 -0.77772405 2.33317216 0 0 Z " fill="#626262" transform="translate(701,668)"/>
<path d="M0 0 C-0.33 0.99 -0.66 1.98 -1 3 C-4.0625 4.1875 -4.0625 4.1875 -7 5 C-7 4.01 -7 3.02 -7 2 C-4 0 -4 0 0 0 Z " fill="#8C8C8C" transform="translate(269,402)"/>
<path d="M0 0 C1.98 0.495 1.98 0.495 4 1 C2.625 3.5 2.625 3.5 1 6 C0.34 6 -0.32 6 -1 6 C-0.67 4.02 -0.34 2.04 0 0 Z " fill="#999999" transform="translate(360,707)"/>
</svg>
